<svg xmlns="http://www.w3.org/2000/svg" viewBox="0 0 175.75 31.27">
  <g fill="#bbb">
    <path d="M171.33 8.24A3.82 3.82 0 0 0 174 7.12a3.82 3.82 0 0 0 1.12-2.7 3.82 3.82 0 0 0-3.78-3.83 3.82 3.82 0 0 0-3.83 3.82 3.82 3.82 0 0 0 1.12 2.7 3.8 3.8 0 0 0 2.7 1.12Zm0 .59a4.39 4.39 0 0 1-3.12-1.29 4.41 4.41 0 0 1-1.29-3.12 4.35 4.35 0 0 1 1.29-3.11A4.4 4.4 0 0 1 171.33 0a4.42 4.42 0 0 1 4.41 4.41 4.43 4.43 0 0 1-1.29 3.12 4.46 4.46 0 0 1-3.13 1.29Z"/>
    <path d="M169.05 1.76h2.79a1.78 1.78 0 0 1 1.81 1.78 1.74 1.74 0 0 1-1 1.5l1.5 2h-1.24l-1.24-1.82h-1.45V7h-1.13V1.76Zm2.7 2.43c.31 0 .86-.1.86-.64s-.12-.72-.77-.72h-1.66v1.36ZM38.25 15.7h4.88l-2.51-7Zm80.36-8.92c-3 0-7.08 1.77-7.08 8.85s3.61 8.86 7.08 8.86 7.16-2.22 7.16-8.86-4.13-8.85-7.16-8.85ZM65 7.29v10.26s6.94-2.88 6.94-6.94C71.9 5.6 65 7.29 65 7.29ZM164.51 23a2 2 0 0 1-.58-1.15L162 9.32a4.26 4.26 0 0 1 .18-1.51c.23-.37 1-.59 1-.59V.87h-14.09L148 4.52 146.58.87h-13.65v6.72A15.56 15.56 0 0 0 119.16.1C114.23.1 108.83 2 105.48 6 103.08 2.32 98.87.13 92.93.13A15.14 15.14 0 0 0 80.17 6.7C78 2.87 76.15.87 68.8.87H54.63v6.5a2.57 2.57 0 0 1 1.08.63A1.68 1.68 0 0 1 56 9.1v14.13a4 4 0 0 1-1.18-1.4L46.67.87H36.56l-8.84 23.32V19h-6.29a3.6 3.6 0 0 1-3.54 2.27c-3 0-5.76-2.51-5.93-6.94-.15-3.83 3.24-5.79 4.45-4.87 1.55 1.18-.15 2.81-.15 2.81l5.17 3.54 7.82-8.27A15 15 0 0 0 16 .21C6 .21 0 7.29 0 15.63s7.71 14.91 17.3 14.91h51.8v-6.22s-1.66-.28-1.66-1.05c0-.43.19-.58.59-.67a25.52 25.52 0 0 0 10.22-5.05c2 8.39 9.23 13 17.63 13h9.45v-5.18s5.36 5.9 13.39 5.9c6.27 0 11.14-4.28 11.14-4.28v3.56h13.32v-5.47h8.12v5.46h14.17v-7.23a1.36 1.36 0 0 1-.96-.31ZM24.6 27.66h-7.67c-9.15 0-14.24-7.16-14.24-12.33C2.69 7.42 9.57 3 15.82 3a13.32 13.32 0 0 1 9.71 4.62L21.36 12a1 1 0 0 1-.41.12 1 1 0 0 1-.44-.19L20 11.5a.2.2 0 0 1-.15-.19 2.77 2.77 0 0 0 .41-1.21c0-.71-.15-3.62-4.65-3.62s-6.49 4.21-6.49 7.68S11.25 24 18.26 24c4.08 0 4.94-2.29 4.94-2.29h1.4Zm30 .07h-9.22V26a.91.91 0 0 0 .88-.44 1.43 1.43 0 0 0 .08-1.44c-.23-.52-1.78-4.61-1.78-4.61H37S35.45 23.6 35.3 24a2 2 0 0 0 0 1.33c.25.61 1.11.7 1.11.7v1.73H29V26a3.38 3.38 0 0 0 1.18-.74 3 3 0 0 0 .74-1.14l7.52-20.44h6.31l7.67 20.07a5.78 5.78 0 0 0 1 1.51 3.45 3.45 0 0 0 1.25.74Zm17.6-9.44a55.87 55.87 0 0 1-7.31 2.58v3.84a1.67 1.67 0 0 0 .41.7 1.72 1.72 0 0 0 .77.55v1.77h-8.56V26a2 2 0 0 0 .89-.48 1.63 1.63 0 0 0 .44-.81V7.37a1.69 1.69 0 0 0-.26-1 6.64 6.64 0 0 0-1-.7V3.68h11.8c4.36 0 8.71 1.55 8.71 6.56S74.93 17 72.2 18.29ZM93.74 6.52c-4.5 0-6.49 4.21-6.49 7.68S89.39 24 96.4 24c4.08 0 4.94-2.29 4.94-2.29h1.41v6h-7.68c-9.15 0-14.24-7.16-14.24-12.32 0-7.93 6.89-12.33 13.17-12.33a13.31 13.31 0 0 1 9.7 4.63l-4.2 4.37a1.1 1.1 0 0 1-.41.11 1 1 0 0 1-.44-.19l-.52-.44a.2.2 0 0 1-.14-.18 3 3 0 0 0 .4-1.22c0-.7-.14-3.62-4.65-3.62Zm24.87 21.9c-8 0-13.7-5.82-13.7-12.9S110.79 3 118.61 3s13.7 5.48 13.7 12.57-5.73 12.85-13.7 12.85Zm44.31-.68h-8.82v-1.59s.78-.11 1-.48a1.41 1.41 0 0 0 .29-1.18c-.07-.59-2.18-14-2.18-14l-3.83 11.88h-4.65L141 11.2l-1.92 13.14a2.29 2.29 0 0 0 .22 1.22 1.51 1.51 0 0 0 1.15.59v1.58h-7.64V26a2 2 0 0 0 1.05-.61 2.45 2.45 0 0 0 .51-1.19l2.79-17.32a1.55 1.55 0 0 0 0-.94c-.19-.31-1.24-.57-1.24-.57V3.69h8.79l3.17 9.8 3.39-9.81h9.19v1.44a2.62 2.62 0 0 0-.88.59 1.37 1.37 0 0 0-.31 1.29c.07.59 2.43 16.6 2.51 17.19a5.28 5.28 0 0 0 .29 1.33c.15.4.85.74.85.74Z"/>
  </g>
</svg>
