<svg xmlns="http://www.w3.org/2000/svg" viewBox="0 0 132.989 15.934">
  <path d="M16.8 15.896a9.375 9.375 0 0 1-1.665-.291 5.625 5.625 0 0 1-4.055-3.95c-.264-.928-.254-.7-.274-6.148L10.788.428h2.319v4.847c0 3.181.018 5 .054 5.279.2 1.626 1.28 2.732 3.2 3.275a4.605 4.605 0 0 0 2.6.042 3.66 3.66 0 0 0 2.959-2.8c.1-.44.1-.572.1-5.544V.433h2.463v4.975c0 5.4 0 5.422-.271 6.329a5.611 5.611 0 0 1-4.232 3.914 10.974 10.974 0 0 1-3.18.241m58.611 0a7.141 7.141 0 0 1-2.583-.69 5.078 5.078 0 0 1-1.371-1.146 4.624 4.624 0 0 1-.649-1.272 5.452 5.452 0 0 1-.138-1.86 3.338 3.338 0 0 1 .983-2.187A5.8 5.8 0 0 1 74.5 7.276a21.987 21.987 0 0 1 3.347-.516 19.838 19.838 0 0 0 3.162-.428 1.355 1.355 0 0 0 .807-.73 1.8 1.8 0 0 0 .115-.885 2.384 2.384 0 0 0-.113-.956 2.727 2.727 0 0 0-2.52-1.752 5.911 5.911 0 0 0-4.647.888 3.1 3.1 0 0 0-.917 2.186v.233h-2.413v-.1a7.259 7.259 0 0 1 .4-1.878 4.974 4.974 0 0 1 3.006-2.78A11.053 11.053 0 0 1 78.948.07a5.909 5.909 0 0 1 3.966 1.357 3.872 3.872 0 0 1 1.29 2.1 40.892 40.892 0 0 1 .11 4.92c.029 4.576.03 4.625.13 4.8.245.424.846.531 1.511.271l.185-.072v1.946l-.407.061a8.561 8.561 0 0 1-1.948 0 1.992 1.992 0 0 1-1.363-.932 2.593 2.593 0 0 1-.271-1.026c0-.106-.021-.186-.045-.178a3.112 3.112 0 0 0-.335.348 5.838 5.838 0 0 1-2.886 1.929 9.854 9.854 0 0 1-3.481.29Zm2.169-1.89a5.051 5.051 0 0 0 3.937-2.519 4.21 4.21 0 0 0 .429-2.422c.013-.715.012-1.3 0-1.3a2.339 2.339 0 0 0-.237.086 20.006 20.006 0 0 1-3.589.625c-3.158.382-4.655 1.051-5 2.239a3.089 3.089 0 0 0 .006 1.293 3.148 3.148 0 0 0 2.589 2.021 8.347 8.347 0 0 0 1.872-.023Zm13.491 1.625c-1.473-.159-2.29-.716-2.585-1.763-.161-.573-.171-.917-.172-6.2V2.341h-2.857V.474h8.57v1.867h-3.35v4.967c0 4.718.019 5.359.146 5.787.122.41.458.64 1.043.716a13.967 13.967 0 0 0 2.024-.072l.136-.026v1.9l-.9.029a15.537 15.537 0 0 1-2.056-.013ZM.019 10.106c.02-5.944.006-5.651.313-6.568C1.039 1.42 3 .223 6.083.028a13.677 13.677 0 0 1 2.972.156l.111.022v2.026L8.71 2.17a14.724 14.724 0 0 0-1.49-.067 6.423 6.423 0 0 0-1.548.1 3.669 3.669 0 0 0-2.967 2.034 4.546 4.546 0 0 0-.276 2.087l.014.975 2.794.011 2.8.011v2H2.472v6.223H.005Zm26.335-2.1V.471h2.412l.013.984.014.984.17-.239a5.767 5.767 0 0 1 1.352-1.192 7.048 7.048 0 0 1 2.513-.9 13.542 13.542 0 0 1 2.392.008c2.37.285 3.92 1.415 4.457 3.25.3 1.017.286.775.306 6.721l.019 5.457h-2.364l-.02-5.123c-.021-5.521-.019-5.479-.285-6.279a3.091 3.091 0 0 0-2.227-2.062 6.363 6.363 0 0 0-2.832 0 4.476 4.476 0 0 0-3.235 3.047c-.272.848-.271.818-.272 5.809v4.612h-2.413Zm15.416 0V.471h2.414V15.54H41.77Zm4.433 0V.471h2.214l.013 1.03.013 1.03.276-.33A5.51 5.51 0 0 1 51.865.228a7.214 7.214 0 0 1 4.414.354 3.868 3.868 0 0 1 1.893 1.63 3.207 3.207 0 0 0 .215.348 3.606 3.606 0 0 0 .243-.31A5.733 5.733 0 0 1 62.382.132a10.425 10.425 0 0 1 2.363-.021 5.068 5.068 0 0 1 3.024 1.323 4.9 4.9 0 0 1 1.335 3.339c.025.36.047 2.93.047 5.711v5.056h-2.413v-5.258c0-3.355-.018-5.394-.051-5.634a2.767 2.767 0 0 0-1.531-2.376 4.318 4.318 0 0 0-1.466-.337c-2.026-.189-3.551.556-4.264 2.084a5.283 5.283 0 0 0-.428 1.349c-.106.494-.109.6-.125 5.338l-.018 4.834h-2.407l-.015-5.568-.015-5.568-.111-.378a2.766 2.766 0 0 0-1.259-1.711 4.806 4.806 0 0 0-4.935.666 4.739 4.739 0 0 0-1.433 2.826 47.67 47.67 0 0 0-.1 5.075l-.02 4.656h-2.359Zm49.744 0V.471h2.363V15.54h-2.363Zm11.722 7.471a9.328 9.328 0 0 1-2.685-.744c-4.215-1.893-5.97-6.46-3.957-10.305a8.942 8.942 0 0 1 9.694-4.239 8.238 8.238 0 0 1 6.553 6.044 9.3 9.3 0 0 1 .1 2.493 7.47 7.47 0 0 1-2.63 4.668 8.719 8.719 0 0 1-4.488 2.043 13.211 13.211 0 0 1-2.585.04m2.107-3.027a3.762 3.762 0 0 0 1.524-.68 2.809 2.809 0 0 0 .748-1.04 2.616 2.616 0 0 0 .1-.31c0-.02-1.489-.036-3.307-.036h-3.31l.031.167a2.656 2.656 0 0 0 .637 1.062 3.205 3.205 0 0 0 1.685.84 7.212 7.212 0 0 0 1.886 0m9.565-4.444V.474h2.362l.014.985.013.985.253-.308a6.085 6.085 0 0 1 3.653-2 11.412 11.412 0 0 1 2.818.024q3.5.56 4.232 3.348c.269 1.024.264.888.284 6.672l.018 5.368h-2.418v-5c0-5.345-.009-5.554-.249-6.335a3.119 3.119 0 0 0-2.59-2.2 8.129 8.129 0 0 0-2.038-.025 4.528 4.528 0 0 0-3.766 3.4c-.21.752-.223 1.095-.223 5.746v4.421h-2.364Z" fill="#bbb"/>
</svg>
