<svg xmlns="http://www.w3.org/2000/svg" viewBox="0 0 140.025 35.452">
  <g fill="#bbb">
    <path d="M67.088 29.457h.508a3.463 3.463 0 0 0 6.6 0h.531a3.74 3.74 0 0 1-1.221 2.451 4.292 4.292 0 0 1-5.2 0 3.75 3.75 0 0 1-1.211-2.451" fill-rule="evenodd"/>
    <path d="M74.55 29.589a3.619 3.619 0 0 1-1.147 2.231 4.164 4.164 0 0 1-5.009 0 3.606 3.606 0 0 1-1.136-2.231h.231a3.612 3.612 0 0 0 6.811 0Zm-.359-.255a.132.132 0 0 0-.132.1 3.323 3.323 0 0 1-6.33 0 .126.126 0 0 0-.134-.1h-.506a.144.144 0 0 0-.108.041.128.128 0 0 0-.035.1A3.866 3.866 0 0 0 68.198 32a3.939 3.939 0 0 0 2.693.914 3.992 3.992 0 0 0 2.709-.912 3.885 3.885 0 0 0 1.263-2.527.125.125 0 0 0-.039-.1.134.134 0 0 0-.1-.041Zm-5.531-.973a.986.986 0 0 1-.67-.256.824.824 0 0 1-.277-.612.808.808 0 0 1 .277-.608 1.011 1.011 0 0 1 1.347 0 .81.81 0 0 1 0 1.22 1.016 1.016 0 0 1-.674.256" fill-rule="evenodd"/>
    <path d="M68.093 28.012a.684.684 0 0 1 0-1.039.821.821 0 0 1 .568-.216.848.848 0 0 1 .578.216.7.7 0 0 1 0 1.039.844.844 0 0 1-.574.218.813.813 0 0 1-.57-.218m-.2-1.222a.932.932 0 0 0 0 1.4 1.119 1.119 0 0 0 .773.293 1.17 1.17 0 0 0 .775-.291.934.934 0 0 0 .008-1.4 1.168 1.168 0 0 0-1.552 0m5.36 1.525a.952.952 0 0 1-.676-.252.786.786 0 0 1-.277-.61.77.77 0 0 1 .277-.6 1.016 1.016 0 0 1 1.343 0 .769.769 0 0 1 .283.6.785.785 0 0 1-.283.61.946.946 0 0 1-.667.252" fill-rule="evenodd"/>
    <path d="M72.685 27.975a.682.682 0 0 1-.238-.518.657.657 0 0 1 .234-.515.843.843 0 0 1 .578-.22.82.82 0 0 1 .57.218.662.662 0 0 1 .234.517.67.67 0 0 1-.234.517.868.868 0 0 1-1.145 0m-.2-1.216a.909.909 0 0 0-.318.7.927.927 0 0 0 .318.7 1.18 1.18 0 0 0 1.55 0 .924.924 0 0 0 0-1.4 1.172 1.172 0 0 0-1.548 0" fill-rule="evenodd"/>
    <path d="M64.822 28.898c0-3.05 2.746-5.521 6.117-5.521s6.115 2.471 6.115 5.521-2.74 5.513-6.115 5.513-6.117-2.473-6.117-5.513m-1.013 0c0 3.544 3.2 6.429 7.129 6.429s7.123-2.885 7.123-6.429-3.191-6.433-7.123-6.433-7.129 2.884-7.129 6.433" fill-rule="evenodd"/>
    <path d="M63.953 28.898c0-3.477 3.133-6.308 6.985-6.308s6.98 2.831 6.98 6.308-3.131 6.3-6.98 6.3-6.985-2.824-6.985-6.3m-.287 0c0 3.617 3.265 6.554 7.272 6.554s7.27-2.937 7.27-6.554-3.259-6.563-7.27-6.563-7.272 2.947-7.272 6.563" fill-rule="evenodd"/>
    <path d="M64.962 28.898c0-2.975 2.682-5.4 5.978-5.4a5.712 5.712 0 0 1 5.972 5.4c0 2.969-2.678 5.386-5.972 5.386s-5.978-2.417-5.978-5.386m-.283 0c0 3.111 2.808 5.646 6.261 5.646s6.257-2.535 6.257-5.646-2.8-5.651-6.257-5.651-6.261 2.535-6.261 5.651M14.492 8.893l-2 1.757a6.3 6.3 0 0 0-4.433-1.783 5.477 5.477 0 0 0-3.707 1.294 4.016 4.016 0 0 0-1.482 3.143 4.134 4.134 0 0 0 1.54 3.245 5.638 5.638 0 0 0 3.815 1.328 5.254 5.254 0 0 0 2.486-.537 3.924 3.924 0 0 0 1.626-1.678h-4.35v-2.4h7.557l.023.56a5.932 5.932 0 0 1-1.021 3.311 6.828 6.828 0 0 1-2.633 2.391 8.3 8.3 0 0 1-3.8.821 9.347 9.347 0 0 1-4.158-.9 7.078 7.078 0 0 1-2.9-2.559A6.552 6.552 0 0 1 0 13.304a6.237 6.237 0 0 1 1.967-4.583 8.218 8.218 0 0 1 6.063-2.32 10.37 10.37 0 0 1 3.654.638 8.373 8.373 0 0 1 2.808 1.854m9.94-2.494a7.967 7.967 0 0 1 5.468 2.04 6.532 6.532 0 0 1 .031 9.9 8.542 8.542 0 0 1-11.085-.06 6.476 6.476 0 0 1-2.224-4.907 6.3 6.3 0 0 1 1.037-3.5 7.277 7.277 0 0 1 2.856-2.531 8.447 8.447 0 0 1 3.916-.936m-.041 2.468a5.016 5.016 0 0 0-3.492 1.28 4.192 4.192 0 0 0-1.414 3.251 4.049 4.049 0 0 0 1.786 3.482 5.3 5.3 0 0 0 3.174 1 4.948 4.948 0 0 0 3.451-1.3 4.286 4.286 0 0 0-.012-6.4 4.99 4.99 0 0 0-3.492-1.313m16.416-2.474a7.949 7.949 0 0 1 5.468 2.04 6.418 6.418 0 0 1 2.287 4.974 6.345 6.345 0 0 1-2.252 4.922 8.539 8.539 0 0 1-11.082-.06A6.479 6.479 0 0 1 33 13.368a6.265 6.265 0 0 1 1.039-3.5 7.282 7.282 0 0 1 2.858-2.531 8.416 8.416 0 0 1 3.91-.936m-.033 2.468a5 5 0 0 0-3.494 1.28 4.2 4.2 0 0 0-1.42 3.251 4.067 4.067 0 0 0 1.783 3.482 5.32 5.32 0 0 0 3.182 1 4.967 4.967 0 0 0 3.453-1.3 4.295 4.295 0 0 0-.016-6.4 4.987 4.987 0 0 0-3.488-1.313m9.004-2.147h3.389a12.476 12.476 0 0 1 4.883.716 6.069 6.069 0 0 1 2.631 2.337 7.338 7.338 0 0 1 .457 6.606 5.937 5.937 0 0 1-1.6 2.139 5.851 5.851 0 0 1-2.207 1.179 17.68 17.68 0 0 1-4.112.323h-3.445Zm2.819 2.464v8.369h1.347a7.694 7.694 0 0 0 2.877-.4 3.242 3.242 0 0 0 1.461-1.339 4.364 4.364 0 0 0 .568-2.307 4.087 4.087 0 0 0-1.354-3.277 5.937 5.937 0 0 0-3.914-1.05Zm25.996-6.03-3.627 2.441a5.478 5.478 0 0 0-3.889-2 2.9 2.9 0 0 0-1.575.392 1.08 1.08 0 0 0-.61.882 1.307 1.307 0 0 0 .432.925 31.229 31.229 0 0 0 3.587 2.5c1.87 1.186 2.99 1.93 3.393 2.242a8.348 8.348 0 0 1 2.106 2.173 4.31 4.31 0 0 1 .616 2.27 4.675 4.675 0 0 1-2.19 3.956 9.67 9.67 0 0 1-5.722 1.563 10.671 10.671 0 0 1-4.8-1.02 9.166 9.166 0 0 1-3.5-3.21l4.116-1.884a5.263 5.263 0 0 0 4.274 2.6 3.839 3.839 0 0 0 2.118-.56 1.569 1.569 0 0 0 .857-1.291 1.927 1.927 0 0 0-.643-1.321 17.763 17.763 0 0 0-2.852-2.035 26.891 26.891 0 0 1-5.422-4.01 4.332 4.332 0 0 1-1.221-2.824 4.211 4.211 0 0 1 2.044-3.484A8.473 8.473 0 0 1 71.129.008a10.029 10.029 0 0 1 3.676.681 13.313 13.313 0 0 1 3.788 2.475M83.68.481h3.926l5.092 13.621 5.1-13.621h3.993l3.608 19.53h-3.994L99.091 7.677l-4.623 12.334h-3.577L86.283 7.677l-2.376 12.334h-4.008Z" fill-rule="evenodd"/>
    <path d="M107.622.483h4.107v19.53h-4.107z"/>
    <path d="M115.543.481h4.11v15.972h6.076v3.559h-10.186Zm12.583 0h11.824v3.6h-7.721v3.555h7.721v3.59h-7.721v5.114h7.721v3.67h-11.824ZM62.434 24.952l-1.8 1.537a5.814 5.814 0 0 0-4.112-1.742 4.684 4.684 0 0 0-3.251 1.192 3.775 3.775 0 0 0-1.32 2.936 3.9 3.9 0 0 0 2.242 3.637 5.176 5.176 0 0 0 2.374.539 5.3 5.3 0 0 0 2.04-.375 7.212 7.212 0 0 0 2.027-1.369l1.742 1.639a9.453 9.453 0 0 1-2.819 1.828 8.32 8.32 0 0 1-3.025.5 7.363 7.363 0 0 1-5.135-1.8 6.248 6.248 0 0 1-1.1-7.832 6.5 6.5 0 0 1 2.606-2.272 7.98 7.98 0 0 1 3.66-.862 8.346 8.346 0 0 1 3.2.634 7.584 7.584 0 0 1 2.66 1.8m18.639-2.117h2.462l3.114 8.475 3.156-8.475h2.5l2.23 12.149h-2.478l-1.424-7.675-2.864 7.675h-2.271l-2.81-7.675-1.49 7.675h-2.486Zm15.04 0h2.734a9.823 9.823 0 0 1 3.172.366 3.173 3.173 0 0 1 1.542 1.19 3.434 3.434 0 0 1 .566 1.968 3.1 3.1 0 0 1-.738 2.109 3.9 3.9 0 0 1-2.015 1.175 13.031 13.031 0 0 1-2.726.188v5.153h-2.536Zm2.536 4.747h.833a4.9 4.9 0 0 0 1.358-.125 1.239 1.239 0 0 0 .6-.408 1.114 1.114 0 0 0 .215-.692 1.088 1.088 0 0 0-.61-1.033 3.871 3.871 0 0 0-1.655-.241h-.74Zm9.495-4.747h2.571l5.173 12.149h-2.672l-1.037-2.5h-5.522l-1.087 2.5h-2.664Zm1.285 3.234-1.837 4.187h3.652Zm7.989-3.234h2.422l5.823 8v-8h2.534v12.149h-2.432l-5.811-7.968v7.968h-2.536Zm12.139 0h2.759l2.5 4.363 2.507-4.363h2.715l-3.949 6.89v5.259h-2.583v-5.259Z" fill-rule="evenodd"/>
  </g>
</svg>
