<svg xmlns="http://www.w3.org/2000/svg" viewBox="0 0 131.646 38.362">
  <g fill="#bbb">
    <path d="m.007 38.362 17.4-.016c7.117 0 12.884-5.19 12.884-11.584s-5.768-11.6-12.884-11.6l-4.518.022a.59.59 0 1 1 0-1.176h17.364l.007-4.916H12.886c-3.359 0-6.092 2.463-6.092 5.489s2.732 5.482 6.092 5.482l4.539.054c4.077 0 7.377 2.968 7.377 6.63s-3.3 6.639-7.377 6.639H.019Z"/>
    <path d="M.014 32.238H17.42c3.369 0 6.095-2.453 6.095-5.485s-2.726-5.479-6.095-5.479l-4.539-.044c-4.071 0-7.374-2.971-7.374-6.642s3.3-6.633 7.374-6.633h17.374l-.006-4.935H12.885C5.776 3.02.001 8.204.001 14.604s5.775 11.587 12.884 11.587l4.493.006a.569.569 0 1 1 0 1.132l-17.371.013ZM43.773 33.423a5.219 5.219 0 0 1-5.49-4.943V12.797c0-2.667 2.472-4.86 5.49-4.86H62.34V3.015H43.773c-6.043 0-10.937 4.4-10.937 9.836v15.63c0 5.435 4.894 9.843 10.937 9.843l18.49.007v-4.914Z"/>
    <path d="M39.615 12.852a3.969 3.969 0 0 1 4.158-3.763h18.568v4.932h-16a1.192 1.192 0 0 0-1.3 1.147h13.35v4.91H39.608ZM43.773 32.229a3.972 3.972 0 0 1-4.166-3.747v-7.233h18.785v4.92H45.046c.018 1.157 1.3 1.163 1.3 1.163h15.92v4.891ZM75.352 33.411a5.228 5.228 0 0 1-5.465-4.93v-15.63a5.2 5.2 0 0 1 5.45-4.914H93.32V3.015H75.295c-6.039 0-10.934 4.4-10.934 9.836v15.63c0 5.435 4.937 9.843 10.976 9.843l17.983.007V15.165H77.865v4.91h9.993v13.332H75.351"/>
    <path d="M71.169 28.482a3.989 3.989 0 0 0 4.169 3.776h11.234V21.242h-8.691v4.927h3.226l.01 1.157h-3.211a1.226 1.226 0 0 1-1.275-1.157l-.028-11a1.2 1.2 0 0 1 1.289-1.173h15.435l-.007-4.907H75.337a3.982 3.982 0 0 0-4.169 3.763v15.63M110.219 9.016a1.848 1.848 0 0 1 3.359 0l8.73 23.277h-12.783l.014-5.476h4.272l-1.923-5.158-6.264 16.669H99.18Z"/>
    <path d="M124.068 33.411h-14.522v4.916h22.1l-11.49-30.691c-1.007-2.994-4.327-5.2-8.257-5.2s-7.247 2.193-8.261 5.184l-11.6 30.7h5.785l11.261-29.846a3.18 3.18 0 0 1 5.609-.006l9.377 24.936M127.481 6.921a4.061 4.061 0 0 0 2.722-1.014 3.218 3.218 0 0 0 0-4.9 4.074 4.074 0 0 0-2.722-1.011 3.671 3.671 0 0 0-3.845 3.455 3.274 3.274 0 0 0 1.133 2.453 4.037 4.037 0 0 0 2.712 1.013m-3.3-3.467a2.8 2.8 0 0 1 .968-2.1 3.588 3.588 0 0 1 4.679 0 2.823 2.823 0 0 1 .969 2.1 3.162 3.162 0 0 1-3.314 2.978 3.48 3.48 0 0 1-2.335-.871 2.8 2.8 0 0 1-.968-2.107"/>
    <path d="M126.492 3.747V5.38h-.557V1.537h1.581a2.146 2.146 0 0 1 1.275.231 1.017 1.017 0 0 1 .455.89 1.055 1.055 0 0 1-1.015 1.052l1.2 1.665h-.673l-1.166-1.628Zm0-.423h1.13a2.32 2.32 0 0 0 .518-.038.6.6 0 0 0 .535-.619.637.637 0 0 0-.254-.537 1.317 1.317 0 0 0-.831-.162h-1.1Z"/>
  </g>
</svg>
