<svg xmlns="http://www.w3.org/2000/svg" viewBox="0 0 146.369 13.775">
  <g fill="#bbb">
    <path d="M18.979 0a2.238 2.238 0 0 0-2.348 2.119v7.947a2.237 2.237 0 0 0 2.348 2.119h3.131v1.59h2.935v-1.59h3.327a2.237 2.237 0 0 0 2.347-2.119V2.119A2.237 2.237 0 0 0 28.372 0Zm.587 2.119h8.022v7.77h-2.543V8.653H22.11v1.236h-2.544ZM2.739 0A2.238 2.238 0 0 0 .391 2.119v2.827a2.238 2.238 0 0 0 2.348 2.119h9v2.826H0v.176a2.237 2.237 0 0 0 2.347 2.119h9.588a2.238 2.238 0 0 0 2.348-2.119V6.888a2.238 2.238 0 0 0-2.348-2.119h-9V2.12h8.414v1.059h2.74V2.12A2.238 2.238 0 0 0 11.741.001ZM33.067 0v10.066a2.237 2.237 0 0 0 2.348 2.119h8.413a2.237 2.237 0 0 0 2.348-2.119V0h-2.935v9.89h-7.239V0h-2.935ZM53.515.177l-6.75 12.009H49.7l1.491-2.649h7.582l1.492 2.649H63.2L56.45.177 56.35 0h-2.739Zm1.468 2.61 2.6 4.63h-5.209ZM64.568 0v12.185h2.936V7.594h1.859l4.892 4.591h3.913l-4.891-4.591h1.467a2.238 2.238 0 0 0 2.348-2.119V2.12A2.238 2.238 0 0 0 74.744.001H64.568Zm2.936 2.119h5.87a.746.746 0 0 1 .782.706v1.943a.746.746 0 0 1-.782.706h-5.87ZM79.635 0v12.185h11.348v-2.3h-8.408v-7.77h8.413V-.004Z"/>
    <path d="M85.114 4.768h4.892v2.296h-4.892zM97.245 0v12.185h11.348v-2.3h-8.413v-7.77h8.413V-.004Z"/>
    <path d="M102.724 4.768h4.892v2.296h-4.892zM110.942 0v12.185h2.739v-8.62l7.044 7.583.2.21.77.828h1.969V0h-2.935v8.2L113.685.617l-.575-.618ZM126.008 0h3.131v12.185h-3.131zM130.691 0l5.876 5.888-5.913 6.3h3.522l4.207-4.476 4.464 4.476h3.522l-6.28-6.3L145.623 0h-3.522l-3.828 4.073L134.213 0Z"/>
  </g>
</svg>
