<svg xmlns="http://www.w3.org/2000/svg" viewBox="0 0 67.784 55.963">
  <path d="M0 44.514v6.829c0 2.773 2.094 4.54 5.144 4.54 3.208 0 5.172-1.864 5.172-4.727v-6.642H7.601v6.517a2.444 2.444 0 1 1-4.885.125v-6.642Zm11.636.094v11.164h4.325c2.4 0 4.431-1.1 4.431-3.29a2.9 2.9 0 0 0-2.214-2.789 2.332 2.332 0 0 0 1.639-2.364c0-1.952-2.071-2.721-3.857-2.721Zm2.736 2.12h1.313c.911 0 1.494.433 1.494 1.187 0 .674-.495 1.183-1.425 1.183h-1.382v-2.369Zm0 4.116h1.451c1.364 0 1.838.633 1.838 1.388 0 .878-.612 1.393-1.7 1.393h-1.589v-2.78Zm7.048-6.237h2.729v11.164h-2.734ZM51.201 55.77h-2.729V44.608h8.568v2.307h-5.838v2.557h5.32v1.871h-5.32Zm6.841-11.163v2.307h3.524v8.856h2.764v-8.855h3.455v-2.307Zm-30.777 7.452-2.168 1.431s.749 2.473 4.505 2.473c2.5 0 4.342-1.317 4.342-3.634 0-3.733-5.783-2.941-5.783-4.86 0-.505.5-.951 1.416-.951a2.28 2.28 0 0 1 2.034 1.3l2.169-1.374s-.847-2.038-4.094-2.038c-2.669 0-4.086 1.545-4.086 3.139 0 3.8 5.614 2.978 5.614 4.974 0 .674-.588 1.169-1.5 1.163a2.686 2.686 0 0 1-2.446-1.629M40.995 44.4a6.391 6.391 0 0 0-4.647 1.575l.415.374a5.11 5.11 0 0 0-2.079 4.2c0 3.294 2.815 5.41 6.327 5.41 4.08 0 6.4-2.717 6.4-5.772 0-3.258-2.643-5.782-6.411-5.782Zm.058 2.317a3.468 3.468 0 1 1 0 6.932c-2.17 0-3.595-1.367-3.595-3.183a2.793 2.793 0 0 1 1.239-2.372l-.449-.405a4.071 4.071 0 0 1 2.8-.972M32.639-.001A23.387 23.387 0 0 0 12.571 11.26l1.781 1.151a18.749 18.749 0 0 0-2.179 8.781c0 10.073 8.884 19.561 21.961 19.561 11.88 0 21.694-8.728 21.694-19.536 0-14.096-12.113-21.218-23.189-21.218Zm.121 3.436c10.952 0 19.45 7.965 19.45 17.226 0 9.816-8.18 16.643-17.712 16.643-7.016 0-13.344-4.822-13.344-11.433a8.964 8.964 0 0 1 4.769-7.9l.369.361a9.514 9.514 0 0 0-2.656 6.14c0 5.2 4.52 8.8 10.214 8.8a11.831 11.831 0 0 0 12.091-12.067c0-7.543-7.377-13.947-16.255-13.947a20.605 20.605 0 0 0-11.473 3.589l-.373-.3c3.133-4.36 8.559-7.112 14.921-7.112m-3.268 7.216c5.665 0 11.2 3.383 12.577 8.184l-.5.172a15 15 0 0 0-11.337-5.4c-8.826 0-13.462 7.239-12.781 13.285l-.52.172a10.561 10.561 0 0 1-.975-4.244c0-6.667 6.066-12.166 13.538-12.166Zm3.745 8.367a4.6 4.6 0 0 1 4.827 4.291 4.254 4.254 0 0 1-1.371 3.07l1.621 1.026a6.173 6.173 0 0 1-4.9 2.282c-3.144 0-5.926-2.291-5.926-5.371.005-3.174 3.026-5.297 5.749-5.297Z" fill="#bbb"/>
</svg>
