<svg xmlns="http://www.w3.org/2000/svg" viewBox="0 0 3840.81 2158.65">
  <defs>
    <style>path{fill:#666;}</style>
  </defs>
  <path d="M0,2158.65H1.64L0,2157.22Z"/>
  <path d="M0,2153.47l6,5.18H36.69Q18.32,2142.8,0,2126.85Z"/>
  <path d="M0,2123.35q20.43,17.71,41,35.3h31.3Q36,2127.8,0,2096.52Z"/>
  <path d="M0,2093.23q38.09,33,76.59,65.42h31.87Q53.8,2113,0,2066.18Z"/>
  <path d="M0,2063q56,48.36,112.92,95.62H145.5Q71.86,2098.32,0,2035.78Z"/>
  <path d="M0,2005.35v27.45q71.16,61.28,143.94,120.73l6.32,5.12h33.27q-13.25-10.62-26.43-21.33Q77.57,2072.57,0,2005.35Z"/>
  <path d="M0,1975v27.63Q72.69,2065,147.13,2125.37q20.72,16.74,41.62,33.28h34.06q-31.44-24.57-62.45-49.68Q79.1,2043.31,0,1975Z"/>
  <path d="M0,1944.52v27.84q74.28,63.59,150.49,125,38.74,31,78.14,61.33h35q-50.46-38.25-99.84-77.91Q80.87,2013.9,0,1944.52Z"/>
  <path d="M121.35,2015.54,75.69,1978l-45.26-38c-10.2-8.59-20.31-17.29-30.43-26v28.09q8.3,7.13,16.63,14.17L62,1994.44l45.8,37.73c15.3,12.53,30.83,24.81,46.23,37.22q57.22,45.53,116,89.26h36.1q-70.45-51.51-138.71-106C152,2040.25,136.59,2028,121.35,2015.54Z"/>
  <path d="M0,1883.5v28.29Q77.76,1978,157.75,2041.6c50.8,40.14,102.47,79.32,155.18,117.05h37.39c-61-42.86-120.61-87.78-179.14-134Q84.42,1955.55,0,1883.5Z"/>
  <path d="M175.18,1996.58Q128.71,1960,83,1922.46,41.23,1888,0,1852.94v28.49c53.08,45.06,106.85,89.34,161.69,132.33C224,2062.68,287.6,2110,352.94,2155l5.36,3.67h38.88q-16-10.72-31.87-21.64C300.42,2092.38,237.19,2045.27,175.18,1996.58Z"/>
  <path d="M179.33,1968.64q-91-71.4-179.33-146.26v28.67q81.6,69,165.8,135c62.56,48.66,126.43,95.72,192,140.37q24,16.36,48.37,32.25h40.67q-38.73-24.6-76.66-50.46C305.08,2063.85,241.58,2017.07,179.33,1968.64Z"/>
  <path d="M183.7,1940.7q-93.39-72.53-183.7-149v28.86c55.76,47,112.32,93.09,170.12,137.67,62.75,48.48,126.88,95.28,192.82,139.51q46.63,31.3,94.48,60.86h42.76q-63.46-37.93-124.87-79.29C309.87,2035.45,246.13,1988.93,183.7,1940.7Z"/>
  <path d="M188.21,1912.85c-62.64-48-124-97.74-184.5-148.57-1.24-1-2.47-2.11-3.71-3.15v29c57.19,48,115.26,95,174.59,140.47,63,48.2,127.46,94.67,193.64,138.59q70.69,46.91,144.26,89.41H558c-60.54-33.58-119.65-69.78-177.4-108.09C314.92,2007,250.9,1960.79,188.21,1912.85Z"/>
  <path d="M2839.38,2158.65h36Q2857.37,2158.5,2839.38,2158.65Z"/>
  <path d="M386.15,2021.69c-66-43.12-130.29-89-193.2-136.74s-124.5-97.22-185.1-148L0,1730.4v29.28c58.66,49.07,118.27,97.08,179.28,143.31,63.24,48,127.93,94.19,194.49,137.65,64.47,42.11,130.61,81.79,198.67,118h49q-16-8.13-31.92-16.53C519.88,2105.34,452.17,2064.82,386.15,2021.69Z"/>
  <path d="M2421.13,2156.71l-9.33,1.94H2559a2182.73,2182.73,0,0,1,336.58-20.35,2230.27,2230.27,0,0,1,264.8,20.35h162.4c-140.42-28.53-283.46-44.67-426.8-46.64A2208.86,2208.86,0,0,0,2421.13,2156.71Z"/>
  <path d="M391.85,1992.85c-66.3-42.78-130.87-88.29-194-135.7s-124.92-96.8-185.72-147.34L0,1699.66v29.53c60.23,50.09,121.43,99.09,184.11,146.2,63.53,47.69,128.55,93.53,195.37,136.65s135.58,83.39,206.29,120q26.41,13.66,53.21,26.62h53.84q-48.86-22.21-96.55-46.92C526.28,2075.51,458.15,2035.62,391.85,1992.85Z"/>
  <path d="M2904.86,2065.21a2209.65,2209.65,0,0,0-475.12,44.2q-58.57,12-116.41,26.89-40.32,10.47-80.21,22.35h93.69q53.67-13.52,107.92-24.46a2185,2185,0,0,1,469.68-42.44c157.48,2.84,314.56,22.63,468.16,57.58q19.82,4.49,39.55,9.32H3521.6q-70.91-20.28-142.9-36.46C3223.26,2087.27,3064.24,2067.65,2904.86,2065.21Z"/>
  <path d="M2913.94,2018.44a2213.16,2213.16,0,0,0-475.45,43.67q-58.63,11.8-116.51,26.76T2207,2121.64c-19,6-37.95,12.14-56.78,18.6l-54.05,18.41h76.92q20.6-6.81,41.33-13.26,56.51-17.49,113.78-32.12t115.28-26.15a2187.18,2187.18,0,0,1,469.94-41.92c157.56,2.91,314.68,23,468.36,57.93Q3485,2126.58,3586,2158.65h90.93A2616.34,2616.34,0,0,0,3388,2075.79C3232.48,2040.86,3073.42,2021,2913.94,2018.44Z"/>
  <path d="M397.77,1964c-66.66-42.27-131.49-87.48-194.89-134.64q-47.5-35.43-94.11-72.1t-92.26-74.57Q8.24,1675.84,0,1669v29.65l2,1.63c61.15,50.68,123.38,100.12,187.19,147.55s129.06,93,196.27,135.62S521.63,2066,592.73,2101.93q59.87,30.39,121.62,56.72h60.82q-87.78-34.53-172-77.27C532.79,2045.78,464.41,2006.27,397.77,1964Z"/>
  <path d="M610.29,2050.78c-70.67-35-139.49-73.83-206.41-115.74s-132.08-86.7-195.78-133.53-125.86-95.77-187-146Q10.52,1646.83,0,1638.07v30l6.44,5.33c61.39,50.46,123.85,99.69,187.9,146.88s129.71,92.26,197.21,134.53,137,81.5,208.41,116.9a1967.8,1967.8,0,0,0,202.63,87h72.16q-23.52-7.53-46.82-15.72C753.56,2116.88,681,2085.76,610.29,2050.78Z"/>
  <path d="M3397.5,2029.31c-155.59-35.06-314.73-55-474.3-57.8a2217.92,2217.92,0,0,0-475.78,43.09,2294.73,2294.73,0,0,0-231.65,59.33c-19,5.89-38,12.14-56.85,18.51l-56.25,19.45-14,4.84-14.06,4.62-28.13,9.23-28.27,8.79-14.14,4.39-14.2,4.16q-18.63,5.51-37.34,10.73h86.75l14.68-4.53,28.4-9.23,14.2-4.63,14.13-4.83,56.23-19.28c18.7-6.26,37.45-12.39,56.3-18.17a2271.92,2271.92,0,0,1,229.23-58.07,2191.66,2191.66,0,0,1,470.24-41.33c157.63,3.18,314.82,23.29,468.56,58.36,76.88,17.49,152.92,38.74,227.9,63.2q55.28,18.15,109.71,38.51h81.39q-89.94-36.15-182.14-66.06C3552.25,2068.07,3475.32,2046.79,3397.5,2029.31Z"/>
  <path d="M617.6,2020.22c-71-34.35-140.12-72.78-207.41-114.16s-132.74-85.82-196.66-132.38q-47.92-35-94.87-71.28t-92.89-74Q12.86,1617.92,0,1607.3v30.06c3.7,3,7.38,6.08,11.09,9.11q46.14,37.79,93.26,74.4t95.39,71.77c64.34,46.86,130.25,91.69,198.15,133.42s137.64,80.59,209.48,115.34a1954.92,1954.92,0,0,0,221.33,91q41.56,14.1,83.77,26.2h95.14a1692.41,1692.41,0,0,1-171.34-48.51A1931.1,1931.1,0,0,1,617.6,2020.22Z"/>
  <path d="M3171.38,1941.69a2297,2297,0,0,0-238.77-17,2219.65,2219.65,0,0,0-476.13,42.48,2292.79,2292.79,0,0,0-231.88,59c-9.51,3-19,6-28.51,9.07s-19,6.16-28.39,9.42-18.89,6.42-28.27,9.78l-28.08,9.88-28,9.81-28.1,9.37-14,4.69-14.12,4.46-28.25,8.91c-73.31,22.41-147.63,41.69-222.68,57.14H1886q60.49-15.22,120.15-33.39l28.52-8.93,14.27-4.47,14.18-4.69,28.38-9.38,28.22-9.82,28.09-9.8c9.3-3.3,18.65-6.44,28-9.6s18.74-6.16,28.11-9.25,18.81-5.93,28.22-8.9a2272.23,2272.23,0,0,1,229.44-57.73A2193.37,2193.37,0,0,1,2932.07,1952a2268.84,2268.84,0,0,1,235.84,17.44q117.56,14.94,232.9,41.36c150.45,34.31,297.59,82.73,440,142.32v-32.27c-140.45-57.6-285.43-104.54-433.66-137.91Q3290.2,1956.48,3171.38,1941.69Z"/>
  <path d="M2942.19,1877.74a2224.57,2224.57,0,0,0-476.49,41.81,2291.09,2291.09,0,0,0-232.1,58.76q-57.24,17.71-113.46,38.19l-27.93,10-14,5-14,4.76-28.08,9.5-28.22,9.06c-150.58,47.79-305.54,82.52-462.66,97.67-19.63,2-39.3,3.39-59,4.84l-25.36,1.4h223.84c112.06-18.44,222.56-45.91,330.72-80l28.5-9.08,28.35-9.52,14.17-4.76,14.1-5,28.19-10q55.72-20.14,112.35-37.49a2266.44,2266.44,0,0,1,229.62-57.49,2198.6,2198.6,0,0,1,470.84-40.06c157.79,3.55,315.09,24.07,469,59.28,147,33.7,290.86,80.62,430.24,138.34v-32.46c-137.4-55.76-279.1-101.22-423.85-134C3261.21,1901.26,3101.94,1880.91,2942.19,1877.74Z"/>
  <path d="M625.16,1989.5a2277.83,2277.83,0,0,1-208.48-112.4c-67.59-41-133.36-85-197.6-131.16S92.19,1651.29,30.61,1601.47Q15.26,1589,0,1576.36v30.33q7.92,6.49,15.87,13c61.81,50.11,124.8,98.86,189.42,145.45S336.23,1856,404.43,1897.34A2298.74,2298.74,0,0,0,615,2010.94c72.2,34.08,146.4,64.14,222.4,88.88a1700.59,1700.59,0,0,0,233.26,58.83h208.62a1671.42,1671.42,0,0,1-434.5-81.42C769.82,2052.84,696.54,2023.17,625.16,1989.5Z"/>
  <path d="M3426.92,1890.06c-155.8-35.41-315.15-55.87-475-59.25a2227,2227,0,0,0-476.85,41.1,2289.59,2289.59,0,0,0-232.36,58.4q-57.26,17.67-113.56,38.13l-55.9,20.24-28,9.64-14,4.82-14.1,4.6c-150.14,49.5-304.83,85.76-461.83,103-78.49,8.35-157.46,12.27-236.33,10.31q-59.2-1.29-118.1-6.71t-117.29-15.2q-58.37-9.66-115.94-23.41c-38.37-9.15-76.37-19.79-114-31.6a1881.28,1881.28,0,0,1-220.7-85.37c-143.5-66.16-279.13-148.83-408-240.64q-48.34-34.47-95.65-70.4t-93.58-73.25Q17.74,1560.07,0,1545.53V1576q10.4,8.46,20.82,16.86,46.5,37.5,94,73.75t96.23,70.91c129.77,92.49,266.64,176,411.83,243A1904.87,1904.87,0,0,0,846.39,2067c38.15,12,76.69,22.78,115.6,32.07s78.13,17.22,117.6,23.78,79.16,11.72,119,15.51,79.8,6,119.78,6.91c80,2.05,160-1.93,239.52-10.23,159-17.13,315.47-53.54,467.09-103.21l14.23-4.62,14.16-4.83,28.32-9.65,56.19-20.17q55.76-20.19,112.44-37.42A2263.45,2263.45,0,0,1,2480.14,1898a2199.92,2199.92,0,0,1,471.15-39.37c157.87,3.76,315.23,24.38,469.16,59.8,77,17.62,153.12,39,228.22,63.55q97.38,32,192.14,70.78v-32.71q-90.34-36.27-182.93-66.34C3581.89,1929.12,3504.86,1907.68,3426.92,1890.06Z"/>
  <path d="M2961.8,1783.84a2232.26,2232.26,0,0,0-477.24,40.37,2287.82,2287.82,0,0,0-232.59,58.1q-57.34,17.57-113.72,37.93l-56,20.58-13.93,5.11-14,4.89-28,9.77c-149.81,50.77-304.1,89-461,108A1815.6,1815.6,0,0,1,1329,2082a1657.36,1657.36,0,0,1-466.49-71.17C786.92,1988.16,713,1960,640.86,1927.74a2184.85,2184.85,0,0,1-210.58-108.82c-68.28-40-134.72-83.1-199.52-128.63s-128-93.4-190-142.81q-20.44-16.39-40.75-33v30.69q12.92,10.47,25.9,20.86c62.27,49.72,125.81,97.93,191,143.85s132.24,89.42,201.17,129.78A2209.9,2209.9,0,0,0,631,1949.74c73,32.69,147.9,61.23,224.57,84.23a1686.31,1686.31,0,0,0,473.22,72.47,1854.09,1854.09,0,0,0,239.51-13.37c158.93-19,315-57.33,466.25-108.29l28.29-9.8,14.15-4.9L2091,1965l56-20.41q55.83-20,112.56-37.22a2262,2262,0,0,1,230-56.82,2205.29,2205.29,0,0,1,471.48-38.62c158,4,315.37,24.88,469.37,60.36,140,32.22,277.11,76.45,410.32,130.37V1969.8c-131.15-52-266.07-94.83-403.77-126.13C3281.16,1808.19,3121.75,1787.44,2961.8,1783.84Z"/>
  <path d="M2971.82,1736.83a2234.85,2234.85,0,0,0-477.62,39.59,2283.71,2283.71,0,0,0-232.86,57.7q-57.4,17.49-113.84,37.82c-9.4,3.38-18.8,6.79-28.15,10.34l-27.94,10.43-27.83,10.35-28,9.92c-149.35,52.4-303.28,92.41-460,113.28l-29.4,3.72c-9.81,1.14-19.64,2.12-29.46,3.19s-19.66,1.87-29.5,2.75l-14.75,1.27c-4.92.43-9.86.68-14.78,1l-14.78,1c-4.93.33-9.85.69-14.79.87l-29.58,1.37-29.61.79-7.4.19-7.4,0-14.81.08q-59.26.18-118.36-3.69t-117.77-12.2q-58.64-8.16-116.61-20.5c-38.61-8.2-76.9-17.93-114.84-28.87A1828,1828,0,0,1,649,1896.69a2183.83,2183.83,0,0,1-211.64-107c-68.68-39.31-135.37-82.16-200.48-127.31s-128.6-92.72-190.82-141.92Q22.92,1502.17,0,1483.59v30.79q15.52,12.51,31.15,24.9c62.5,49.52,126.28,97.52,191.9,143s132.83,88.75,202.2,128.48a2209.13,2209.13,0,0,0,214,108.28,1853.82,1853.82,0,0,0,225.67,81.74c38.48,11.1,77.32,21,116.51,29.32s78.66,15.3,118.33,20.86,79.54,9.73,119.5,12.47,80,3.91,120.08,3.85l15-.07,7.51,0,7.5-.19,30-.77,30-1.36c5-.19,10-.55,15-.87l15-1c5-.34,10-.6,15-1l15-1.28c10-.87,20-1.62,29.9-2.76l29.85-3.19,29.78-3.72c158.79-20.84,314.47-61,465.29-113.63l28.27-9.94,28.1-10.37,28-10.36c9.26-3.48,18.56-6.83,27.87-10.15q55.86-20.05,112.68-37.09a2253.26,2253.26,0,0,1,230.28-56.42,2207.4,2207.4,0,0,1,471.81-37.86c158,4.24,315.52,25.25,469.58,60.91,136.39,31.55,270.13,74.34,400.15,126.43v-33.09c-127.93-50.21-259.42-91.59-393.5-122.22C3291.36,1761.55,3131.86,1740.69,2971.82,1736.83Z"/>
  <path d="M2982,1689.81a2239.55,2239.55,0,0,0-478,38.78q-59,11.31-117.32,25.63t-115.8,31.72q-57.48,17.4-114,37.63c-9.43,3.33-18.79,6.86-28.19,10.28l-28.05,10.63-27.8,10.49-13.9,5.25-14,5-28,10-28.11,9.6-14,4.79-14.13,4.58-28.27,9.11L1904,1912l-14.22,4.3-14.27,4.07c-9.52,2.69-19,5.49-28.56,8.09l-28.68,7.65a2146.31,2146.31,0,0,1-232.42,47.52c-39.13,5.64-78.41,10.3-117.81,13.5s-78.87,5.14-118.38,5.82l-29.63.26-29.62-.35c-4.94,0-9.88-.2-14.81-.36l-14.8-.48c-9.88-.23-19.74-.83-29.59-1.34q-59.22-3.2-118-10.52A1675.18,1675.18,0,0,1,881,1943.63c-76.22-20.88-150.86-47.39-223.68-78.2a2104.77,2104.77,0,0,1-212.75-105c-69-38.88-136.1-81.1-201.5-125.9s-129.18-92-191.65-141q-16.42-12.95-32.75-26-9.38-7.4-18.69-14.84v30.89c74.37,59.65,150.56,117.12,229.3,171.14,65.89,45.17,133.61,87.8,203.29,127.1a2128.91,2128.91,0,0,0,215.16,106.3c73.74,31.23,149.41,58.14,226.73,79.35a1702.13,1702.13,0,0,0,235.61,47.32q59.72,7.49,119.75,10.78c10,.53,20,1.15,30,1.39l15,.5c5,.16,10,.36,15,.38l30.06.38,30.06-.25q60.15-1,120-5.79c39.94-3.21,79.73-7.92,119.38-13.53a2172.6,2172.6,0,0,0,235.26-47.65l29-7.67c9.65-2.62,19.25-5.42,28.88-8.12l14.43-4.09,14.36-4.32,28.72-8.68,28.56-9.15,14.27-4.59,14.2-4.81,28.39-9.64,28.24-10.08,14.12-5,14-5.25L2110,1869l27.79-10.45c9.31-3.36,18.57-6.83,27.91-10.1q56-19.87,112.8-36.91t114.53-31q57.67-14.1,116-25a2211.05,2211.05,0,0,1,472.16-37c158.13,4.44,315.66,25.78,469.79,61.55,132.79,30.77,263,72.26,389.84,122.48v-33.26c-124.68-48.39-252.66-88.48-383.13-118.34C3301.65,1715.07,3142.1,1693.88,2982,1689.81Z"/>
  <path d="M2992.23,1642.76a2244.94,2244.94,0,0,0-478.42,37.93q-59.08,11.13-117.45,25.38t-115.94,31.56q-57.57,17.25-114.13,37.45c-9.41,3.41-18.86,6.73-28.22,10.27s-18.77,7-28.09,10.61l-55.66,21.32c-148.52,55.3-301.69,98.73-458.08,123.45s-315.7,30.52-472.81,12.5c-157.17-17.45-311.27-59-457.56-119.14A2111.9,2111.9,0,0,1,452,1731c-69.41-38.19-136.76-80.14-202.51-124.49s-129.78-91.34-192.5-140q-15.12-11.73-30.12-23.61Q13.41,1432.36,0,1421.71v30.92q9.33,7.44,18.69,14.84,11.65,9.19,23.37,18.3c63,49,127.4,96.46,193.69,141.18s134.23,87.1,204.36,125.72A2133.44,2133.44,0,0,0,656.44,1857c148.16,61,304.62,103.24,464.18,121,39.86,4.52,79.88,7.72,120,9.37s80.21,1.83,120.3.75c10-.35,20-.55,30.06-1l30-1.58c20-1.39,40-2.71,60-4.72,39.91-3.78,79.71-8.65,119.28-15,158.44-24.74,313.34-68.38,463.33-123.9l55.94-21.27c9.24-3.58,18.52-7,27.81-10.43s18.62-6.73,27.94-10.07q56-19.85,112.93-36.73t114.65-30.89q57.75-13.87,116.1-24.76a2216.5,2216.5,0,0,1,472.5-36.21c158.22,4.73,315.82,26.23,470,62.14,129.12,30.1,255.87,70.19,379.39,118.57v-33.47c-121.37-46.58-245.82-85.29-372.6-114.47C3312.11,1668.48,3152.48,1647.12,2992.23,1642.76Z"/>
  <path d="M3002.64,1595.69a2247.79,2247.79,0,0,0-478.83,37.07,2288.61,2288.61,0,0,0-233.67,56.51q-57.61,17.22-114.28,37.29c-18.9,6.66-37.67,13.64-56.4,20.76L2063.72,1769l-13.87,5.37-13.94,5.18-27.9,10.3-28,9.88-14,4.92c-4.68,1.64-9.4,3.15-14.1,4.73l-28.22,9.38-28.36,8.92-14.18,4.45-14.25,4.21-28.52,8.38c-38.15,10.73-76.5,20.72-115.1,29.6-38.63,8.72-77.44,16.68-116.47,23.33-156,26.81-315.49,34.18-472.93,18.61a1658.52,1658.52,0,0,1-233.54-40.61,1749.57,1749.57,0,0,1-225.64-73.08q-55.15-22-108.92-47.31-53.73-25.43-106-53.68c-69.71-37.72-137.56-78.93-203.58-123C179.83,1527.77,105.87,1473.52,33.62,1417q-16.87-13-33.62-26.26v31q13.41,10.65,26.91,21.18c69.91,54.6,141.53,107.07,215.44,156.37,66.55,44.43,135,86.07,205.49,124.23q52.83,28.69,107.22,54.34t110.3,48A1775,1775,0,0,0,894.2,1900a1688.37,1688.37,0,0,0,237.1,41.34q59.92,5.94,120.17,7.65c40.12,1.16,80.28,1,120.38-.74s80.13-4.64,120-8.81q59.84-6.63,119.17-16.47c39.54-6.67,78.84-14.64,118-23.39,39.08-8.92,77.88-18.95,116.47-29.72l28.84-8.41,14.41-4.23,14.34-4.47,28.67-9,28.52-9.42c4.74-1.59,9.51-3.11,14.24-4.75l14.18-4.94,28.34-9.93,28.18-10.34,14.08-5.2,14-5.4,55.74-21.5c18.53-7,37.12-13.84,55.82-20.38q56.1-19.71,113.07-36.56a2262.21,2262.21,0,0,1,231-55.22,2219,2219,0,0,1,472.87-35.35c158.31,5,316,26.72,470.23,62.84,125.43,29.33,248.64,68,368.82,114.63v-33.66c-118-44.8-238.88-82.17-361.94-110.59C3322.7,1621.91,3163,1600.31,3002.64,1595.69Z"/>
  <path d="M3013.18,1548.61a2254.56,2254.56,0,0,0-479.24,36.15q-59.21,10.93-117.73,24.93T2300,1640.85q-57.73,17-114.45,37.05c-18.89,6.71-37.74,13.56-56.46,20.71-9.37,3.58-18.74,7.15-28,10.88l-27.83,11-27.71,10.88-27.86,10.46c-18.54,7.1-37.31,13.52-56,20.23-9.36,3.27-18.78,6.37-28.17,9.56l-14.1,4.76c-4.7,1.59-9.44,3-14.16,4.55l-28.34,9-28.49,8.56-14.25,4.26-14.31,4c-9.55,2.66-19.08,5.41-28.65,8-19.18,5-38.32,10.16-57.62,14.66-19.23,4.82-38.62,8.92-58,13.25-19.41,3.91-38.8,8.06-58.31,11.46-19.46,3.72-39,6.72-58.59,9.91l-29.41,4.17-7.35,1-7.37.91-14.74,1.8c-39.32,4.66-78.76,8.38-118.29,10.39s-79.11,3-118.68,2.44-79.11-2.62-118.52-6-78.71-8.22-117.78-14.44-77.88-14-116.39-23.11a1727.2,1727.2,0,0,1-226.63-70.36,2036.36,2036.36,0,0,1-216-98.89c-70.12-37-138.21-77.94-204.62-121.45-73.18-48-144.19-99.28-213.58-152.78Q24.51,1378.91,0,1359.67v31q16.74,13.21,33.62,26.26,9.95,7.69,19.94,15.33c63.61,48.48,128.59,95.29,195.58,139.18s135.72,85.27,206.61,122.75a2060.62,2060.62,0,0,0,218.7,100.23c149.69,57.93,307.5,96.13,467.7,109.74,40,3.46,80.17,5.66,120.34,6.2s80.35-.26,120.45-2.36,80.11-5.74,120-10.44l14.94-1.81,7.47-.91,7.45-1,29.81-4.21c19.8-3.21,39.65-6.21,59.36-9.94,19.77-3.4,39.4-7.57,59.07-11.49,19.58-4.34,39.21-8.46,58.68-13.3,19.54-4.52,38.9-9.7,58.32-14.71,9.68-2.58,19.32-5.34,29-8l14.48-4,14.41-4.28,28.81-8.6,28.66-9.07c4.77-1.53,9.57-3,14.32-4.58l14.24-4.77c9.49-3.2,19-6.32,28.48-9.6,18.87-6.74,37.84-13.19,56.56-20.32l28.14-10.51,28-10.92,27.83-10.9c9.21-3.67,18.48-7.17,27.76-10.68,18.53-7,37.18-13.75,55.88-20.33q56.16-19.59,113.21-36.33t114.9-30.47q57.89-13.68,116.34-24.32A2226,2226,0,0,1,3012.23,1578c158.4,5.28,316.13,27.25,470.46,63.5,121.72,28.55,241.31,66,358.12,110.76V1718.4c-114.58-43-231.83-79.13-351.15-106.77C3333.41,1575.36,3173.63,1553.53,3013.18,1548.61Z"/>
  <path d="M3023.84,1501.48a2257.61,2257.61,0,0,0-479.67,35.22,2291.15,2291.15,0,0,0-234.24,55.61q-115.68,34.15-227.18,79.46c-147.18,59.7-299.08,108.26-454.79,138.67q-58.43,11.26-117.32,19.26l-29.49,3.71c-9.84,1.15-19.69,2.11-29.54,3.16s-19.72,1.88-29.59,2.73l-14.8,1.25c-4.93.43-9.88.67-14.82,1l-14.82,1c-4.94.31-9.88.67-14.83.84l-29.67,1.28-29.69.7-7.42.16h-7.43l-14.85,0q-59.43-.08-118.67-4.29a1648.72,1648.72,0,0,1-234.78-34.52A1720.48,1720.48,0,0,1,692.68,1739q-55.73-20.77-110-45t-107.14-51.68c-70.46-36.48-139-76.64-205.72-119.82-71.6-46.28-141.14-95.72-209.07-147.39Q30.14,1352.11,0,1328.58v31.09q24.51,19.23,49.3,38.09c67.12,51.06,135.89,100,206.79,145.89,67.25,43.6,136.52,84.21,207.78,121.14q53.45,27.75,108.41,52.37t111.47,45.7a1745.41,1745.41,0,0,0,230.92,68.85,1677,1677,0,0,0,238.45,35.18q60.21,4.32,120.51,4.48h22.61l7.54-.16,30.14-.67,30.11-1.28c5-.17,10-.52,15-.84l15-1c5-.33,10-.57,15-1l15-1.26c10-.85,20-1.6,30-2.73s20-2,30-3.18l29.9-3.73q59.76-8,118.9-19.36c157.76-30.5,311.39-79.32,460-139.26a2371.23,2371.23,0,0,1,224.77-78,2261.18,2261.18,0,0,1,231.51-54.31,2227.81,2227.81,0,0,1,473.6-33.52c158.48,5.57,316.29,27.74,470.67,64.21,118,27.85,233.93,63.9,347.32,106.87v-34.07a2811.31,2811.31,0,0,0-340.24-102.92C3344.26,1528.73,3184.39,1506.7,3023.84,1501.48Z"/>
  <path d="M3034.59,1454.36A2262.28,2262.28,0,0,0,2320,1543.77q-57.87,16.88-114.78,36.63t-112.73,42.42L2037,1645.2c-9.23,3.67-18.53,7.16-27.8,10.75s-18.52,7.19-27.87,10.54l-28,10.24c-9.33,3.41-18.75,6.55-28.12,9.84-18.71,6.66-37.64,12.66-56.5,18.89-75.67,24.08-152.41,44.84-230.12,60.9-38.85,8-77.88,15.17-117.15,20.74s-78.63,10.33-118.14,13.44-79.11,5-118.73,5.53l-29.72.15-29.71-.47c-4.94,0-9.9-.26-14.84-.44l-14.85-.55c-9.9-.28-19.78-.93-29.67-1.5q-59.36-3.52-118.26-11.3-58.93-7.95-117.09-20.09A1688,1688,0,0,1,702,1707a1967.27,1967.27,0,0,1-218.27-94.47c-70.85-35.82-139.71-75.59-206.8-118.2-72.07-45.84-142-95-210.34-146.4Q33,1323,0,1297.44v31.14q30.15,23.52,60.74,46.48c65.73,49.3,133.07,96.5,202.48,140.72,67.69,43,137.26,83.27,208.93,119.56a1996.21,1996.21,0,0,0,221.1,95.82,1712.65,1712.65,0,0,0,231.94,66q59.12,12.42,119,20.47t120.14,11.56c10,.58,20.08,1.26,30.14,1.56l15.08.57c5,.19,10,.42,15.08.46l30.17.51,30.17-.12q60.38-.81,120.52-5.49A1955.57,1955.57,0,0,0,1644,1792.31c78.73-16.11,156.41-37,233-61.16,19.06-6.26,38.21-12.29,57.13-19,9.47-3.31,19-6.47,28.42-9.9l28.28-10.28c9.46-3.36,18.8-7,28.17-10.59s18.76-7.11,28.08-10.8l55.68-22.35Q2158,1626,2214.27,1606.6t113.51-35.89a2233.52,2233.52,0,0,1,705.75-86.42c158.58,5.86,316.44,28.32,470.9,64.94a2789.57,2789.57,0,0,1,336.38,103v-34.29a2815.13,2815.13,0,0,0-329.23-99.09C3355.19,1482.2,3195.26,1459.87,3034.59,1454.36Z"/>
  <path d="M3045.47,1407.21a2268.35,2268.35,0,0,0-715.36,87.91,2400.21,2400.21,0,0,0-227.85,78.64l-55.53,22.69c-18.36,7.64-37,14.68-55.46,21.93-37.19,14.07-74.54,27.72-112.3,40.08-18.81,6.42-37.83,12.18-56.77,18.16-9.5,2.92-19,5.64-28.57,8.46l-14.29,4.2-14.36,4-28.73,7.86-28.87,7.35c-9.6,2.54-19.29,4.69-29,7s-19.3,4.63-29,6.63l-29.11,6.26-29.22,5.7c-9.73,2-19.52,3.59-29.29,5.31s-19.54,3.48-29.35,4.9c-39.18,6.37-78.58,11.14-118.06,14.9-19.73,2-39.52,3.28-59.3,4.65l-29.7,1.49c-5,.29-9.91.39-14.86.54l-14.86.44q-59.49,1.5-118.9-1.12a1642.46,1642.46,0,0,1-235.9-28.26,1696.42,1696.42,0,0,1-229.42-62.16c-75-25.91-148.14-57.1-219.36-92.21a2340.46,2340.46,0,0,1-207.94-116.45Q183.09,1402.48,87,1331.49c-1.84-1.36-3.66-2.73-5.49-4.09l-3.18-2.3Q38.77,1296.2,0,1266.24v31.2Q33,1323,66.55,1347.9c1.8,1.34,3.58,2.69,5.38,4,64.44,47.71,130.59,93.23,198.61,135.87a2368,2368,0,0,0,210.13,117.84c72.07,35.58,146.21,67.25,222.27,93.58a1722.88,1722.88,0,0,0,232.93,63.25,1672,1672,0,0,0,239.69,28.86q60.39,2.7,120.76,1.26l15.09-.42c5-.15,10.07-.25,15.09-.54l30.15-1.49c20.08-1.36,40.17-2.66,60.19-4.64,80.17-7.34,159.74-20.19,238.3-37.29,9.86-2,19.62-4.41,29.41-6.66s19.6-4.48,29.32-7l29.23-7.39,29.09-7.88,14.53-4,14.47-4.23c9.63-2.83,19.3-5.57,28.91-8.5,19.17-6,38.41-11.79,57.43-18.24,38.2-12.43,76-26.14,113.53-40.27,18.7-7.29,37.49-14.36,56-22l55.47-22.53a2365.52,2365.52,0,0,1,225.37-77.14,2239.44,2239.44,0,0,1,706.41-84.93c158.67,6.17,316.61,28.87,471.13,65.68a2805.46,2805.46,0,0,1,325.33,99.15v-34.47a2829.42,2829.42,0,0,0-318.09-95.31C3366.25,1435.6,3206.25,1413,3045.47,1407.21Z"/>
  <path d="M3056.47,1360a2279.33,2279.33,0,0,0-481,32.22c-158.58,27.76-314,72.62-463.35,132.38-9.32,3.77-18.67,7.45-27.93,11.36l-27.75,11.51-27.58,11.4c-9.19,3.81-18.49,7.35-27.73,11-18.46,7.43-37.12,14.32-55.73,21.32l-7,2.62-7,2.5-14,5-14.05,5-7,2.5-7.07,2.38-28.26,9.54c-4.7,1.62-9.43,3.12-14.17,4.62L1832.6,1630c-18.9,6.18-38,11.67-57,17.4-9.54,2.76-19.13,5.37-28.7,8.06l-14.36,4-14.42,3.73c-9.62,2.47-19.22,5.06-28.87,7.41l-29,6.94-7.24,1.72-7.28,1.6-14.55,3.18-14.56,3.19c-4.85,1.06-9.73,2-14.6,3-9.74,1.91-19.46,3.92-29.22,5.74l-29.33,5.23c-39.15,6.61-78.47,12.2-117.93,16.47-78.94,8.23-158.4,11.74-237.69,9q-59.5-1.92-118.67-8.1-59.21-6.37-117.73-17a1651.3,1651.3,0,0,1-230.32-59.22,1901.23,1901.23,0,0,1-220.5-89.8,2351.78,2351.78,0,0,1-209-114.72c-67.79-41.68-133.69-86.48-198.11-133.35l-3.88-2.85-4.63-3.33Q42,1267.21,0,1235v31.22q38.79,29.91,78.34,58.86l3.18,2.3c63.82,46.45,129.15,91,196.49,132.39a2372.74,2372.74,0,0,0,211.31,116.12,1925.54,1925.54,0,0,0,223.5,91.18,1677.92,1677.92,0,0,0,233.9,60.29q59.53,10.84,119.65,17.34,60.18,6.3,120.59,8.32c80.57,2.86,161.27-.63,241.38-8.89,40.05-4.29,79.93-9.92,119.63-16.58l29.73-5.26c9.89-1.84,19.75-3.87,29.62-5.79,4.93-1,9.88-1.91,14.8-3l14.75-3.2,14.74-3.2,7.38-1.6,7.34-1.73,29.36-7c9.77-2.36,19.49-5,29.24-7.44l14.6-3.75,14.54-4c9.68-2.7,19.4-5.32,29.06-8.09,19.26-5.76,38.6-11.28,57.72-17.49l14.38-4.54c4.8-1.5,9.58-3,14.34-4.64l28.58-9.59,7.15-2.4,7.1-2.51,14.21-5,14.2-5,7.1-2.52,7.06-2.63c18.82-7,37.69-14,56.34-21.42,9.33-3.71,18.73-7.26,28-11.09l27.86-11.45,27.68-11.41c9.16-3.85,18.42-7.47,27.64-11.18,147.76-58.71,301.41-102.57,458-129.57a2249.58,2249.58,0,0,1,474.75-30.54C3214,1397,3372,1420,3526.62,1457a2818.26,2818.26,0,0,1,314.19,95.27v-34.7A2844.22,2844.22,0,0,0,3534,1426.05C3377.43,1389,3217.35,1366.15,3056.47,1360Z"/>
  <path d="M3067.57,1312.85a2316.87,2316.87,0,0,0-241.54,2.82,2275,2275,0,0,0-475.33,82,2378,2378,0,0,0-228.55,77.75q-28,11.16-55.83,22.94l-27.59,11.55c-9.2,3.8-18.33,7.78-27.6,11.4-18.49,7.38-36.94,14.87-55.59,21.82l-14,5.31c-4.64,1.78-9.3,3.55-14,5.21l-28.07,10.15c-37.53,13.22-75.27,25.9-113.39,37.26-19,5.93-38.18,11.13-57.3,16.6l-28.83,7.63c-4.81,1.24-9.6,2.57-14.43,3.76l-14.49,3.52-14.48,3.53c-4.83,1.18-9.66,2.37-14.52,3.41L1613,1646c-9.7,2.14-19.46,4-29.2,6l-14.61,2.94-14.66,2.67-14.66,2.67c-4.88.91-9.77,1.79-14.68,2.55l-29.42,4.75c-19.66,2.8-39.31,5.76-59,8A1729.2,1729.2,0,0,1,1199,1687.91,1641.07,1641.07,0,0,1,962.13,1666a1675.36,1675.36,0,0,1-231.19-56.36c-75.67-24.13-149.57-53.78-221.58-87.46q-54-25.37-106.57-53.6-52.52-28.39-103.62-59.27c-68-41.08-134.15-85.22-198.66-131.72-3-2.1-5.93-4.19-8.88-6.29Q45.27,1238.24,0,1203.72V1235q42,32.18,84.94,63.2l4.63,3.33c63.63,45.83,128.93,89.46,196.12,130.1q51.58,31.29,104.7,60T498.23,1546c72.91,34.16,147.84,64.29,224.66,88.84a1702.51,1702.51,0,0,0,234.84,57.41,1670.92,1670.92,0,0,0,240.77,22.41,1756,1756,0,0,0,241.41-12.27c20-2.22,40-5.19,59.91-8l29.84-4.78c5-.76,9.94-1.65,14.89-2.56l14.86-2.69,14.87-2.69,14.81-3c9.86-2,19.76-3.89,29.6-6l29.48-6.53c4.93-1,9.82-2.24,14.71-3.43l14.68-3.54,14.68-3.54c4.88-1.2,9.74-2.53,14.61-3.78l29.2-7.66c19.36-5.5,38.8-10.72,58-16.68,38.59-11.42,76.77-24.16,114.73-37.45l28.39-10.2c4.74-1.67,9.44-3.45,14.14-5.24l14.11-5.33c18.85-7,37.5-14.52,56.18-21.93,9.37-3.64,18.6-7.63,27.89-11.46l27.79-11.57q27.48-11.64,55.24-22.57c148-58.41,301.82-102,458.6-128.57a2236.18,2236.18,0,0,1,236.79-27.38,2286,2286,0,0,1,238.35-2.15c158.88,6.8,316.94,30,471.6,67.25a2816.73,2816.73,0,0,1,302.93,91.45v-34.9a2840.93,2840.93,0,0,0-295.48-87.7C3388.71,1342.44,3228.56,1319.31,3067.57,1312.85Z"/>
  <path d="M3078.77,1265.66a2293.12,2293.12,0,0,0-481.85,30.1c-159,27-314.87,71.23-464.7,130.39q-28.11,11.07-55.92,22.86l-55.22,23.44-6.88,2.91-6.92,2.8-13.86,5.6c-9.24,3.7-18.43,7.56-27.73,11.12-18.6,7.13-37.12,14.47-55.87,21.18-37.34,13.88-75.11,26.52-113,38.58l-28.54,8.78c-4.75,1.5-9.53,2.85-14.31,4.23l-14.35,4.13-14.34,4.12c-4.78,1.4-9.6,2.61-14.4,3.92l-28.83,7.71q-57.85,14.79-116.35,26.45-58.59,11.41-117.67,19.43c-78.81,10.28-158.26,15.95-237.7,15.37q-59.61-.27-119-4.86-59.43-4.76-118.29-13.8t-117-22.38q-58.08-13.47-115.06-31a1827.38,1827.38,0,0,1-222.69-84.92,2252.08,2252.08,0,0,1-211.36-111c-68.49-40.69-135.12-84.58-200.16-130.76l-2.89-2.07-5.31-3.72q-49.35-34.74-97.47-71.1L0,1172.43v31.29q45.3,34.47,91.63,67.61c3,2.1,5.92,4.19,8.88,6.29,62.68,44.31,126.89,86.57,193,125.86a2277.85,2277.85,0,0,0,213.78,112.43,1853.67,1853.67,0,0,0,225.87,86.3Q791,1620.11,850,1633.74t118.9,22.83q59.91,9.24,120.27,14.12,60.43,4.63,121,5c80.74.68,161.43-5,241.42-15.33q60-8.13,119.36-19.57c39.55-7.83,78.84-16.8,117.92-26.63l29.21-7.75c4.86-1.31,9.75-2.53,14.59-3.93l14.52-4.15,14.53-4.15c4.84-1.38,9.69-2.74,14.49-4.24l28.89-8.83c38.4-12.12,76.62-24.82,114.37-38.78,19-6.74,37.7-14.12,56.5-21.28,9.41-3.57,18.69-7.46,28-11.17l14-5.63,7-2.82,7-2.93,55.4-23.38q27.54-11.54,55.31-22.49c148.24-58.1,302.29-101.29,459.22-127.57a2262.56,2262.56,0,0,1,475.55-28.44c159,7.11,317.1,30.63,471.83,68.06a2835.66,2835.66,0,0,1,291.57,87.63v-35.1a2862.19,2862.19,0,0,0-284-83.93C3400.1,1295.85,3239.87,1272.44,3078.77,1265.66Z"/>
  <path d="M3090.07,1218.42a2335.2,2335.2,0,0,0-241.92,1.76,2279.61,2279.61,0,0,0-240.38,27.27c-159.15,26.61-315.3,70.46-465.38,129.36-9.4,3.63-18.74,7.41-28.08,11.2s-18.64,7.66-27.94,11.54-18.53,7.91-27.79,11.87L2031,1423.24c-36.59,15.86-73.66,30.57-110.86,44.87-74.6,28.1-150.31,53.24-227.24,73.87-153.69,41.51-312.18,66.11-471.24,67.49A1635,1635,0,0,1,984,1594.06a1651.83,1651.83,0,0,1-232.86-50.33c-152.67-44.82-298.62-111.22-436.27-191.51q-51.66-30.12-102-62.48-46.62-30.15-92.17-61.93-7.59-5.2-15.16-10.45Q52,1180.16,0,1141v31.44l1.06.81q48.12,36.36,97.47,71.1l5.31,3.72q46.74,32.82,94.73,63.86,50.73,32.79,103,63.21c69.6,40.56,141.22,77.86,215,110.53s149.52,61.06,227,83.83a1637.14,1637.14,0,0,0,478.37,67.19,1781,1781,0,0,0,241.37-18.7l15-2.2,7.49-1.1,7.46-1.24,29.85-5c9.93-1.78,19.83-3.71,29.75-5.56s19.79-3.9,29.66-6c19.78-4,39.41-8.64,59.06-13.14l29.36-7.29c4.88-1.23,9.79-2.41,14.66-3.69l14.6-3.94c77.94-20.74,154.57-46,230-74.26,37.63-14.37,75.1-29.16,112.08-45.1l27.71-11.82c9.17-3.9,18.28-7.92,27.5-11.68s18.38-7.69,27.64-11.35,18.47-7.45,27.77-11c148.45-57.83,302.72-100.68,459.84-126.53a2246.07,2246.07,0,0,1,237.24-26.28,2303.89,2303.89,0,0,1,238.71-1.11c159.06,7.46,317.27,31.25,472.05,68.89a2846.43,2846.43,0,0,1,280.12,83.8V1367c-89.43-31.09-180.34-58-272.46-80.13C3411.59,1249.24,3251.28,1225.55,3090.07,1218.42Z"/>
  <path d="M3101.47,1171.2a2286.1,2286.1,0,0,0-719.18,79.92,2391.46,2391.46,0,0,0-229.67,76.26l-28.13,11.15c-9.32,3.84-18.68,7.6-28,11.5s-18.61,7.79-27.84,11.83L2041,1373.91c-18.32,7.9-36.55,16-55,23.51-9.22,3.8-18.41,7.68-27.66,11.41l-27.83,11c-4.64,1.82-9.26,3.7-13.93,5.47l-14,5.26-28,10.49-28.18,10c-4.7,1.65-9.38,3.38-14.1,5l-14.17,4.77c-37.71,13-75.87,24.54-114.18,35.5l-28.8,8c-9.62,2.61-19.29,5-28.93,7.47l-14.48,3.7-14.54,3.41c-9.7,2.24-19.37,4.65-29.1,6.75-38.88,8.66-78,16-117.32,22.4l-29.51,4.49c-9.86,1.4-19.73,2.61-29.59,3.93s-19.76,2.37-29.65,3.47l-14.83,1.63c-4.94.58-9.9.92-14.85,1.38-9.92.84-19.81,1.86-29.74,2.54l-29.77,2c-19.86,1-39.73,2-59.61,2.33q-59.7,1.38-119.27-1.59-59.61-3.12-118.79-10.55t-117.7-19.24q-58.49-11.94-115.95-28a1768,1768,0,0,1-224.88-79.79,2149.45,2149.45,0,0,1-213.68-107c-69.24-39.58-136.61-82.51-202.3-127.93l-1.24-.87-6.64-4.52Q55.49,1151.13,0,1109.59V1141q52.08,39.09,105.54,76.37,7.56,5.25,15.16,10.45c61.39,42,124.3,82,189,119A2174.07,2174.07,0,0,0,526,1455.28a1792.24,1792.24,0,0,0,228.22,81.17Q812.58,1552.86,872,1565t119.69,19.65q60.24,7.6,120.8,10.83c40.39,2,80.85,2.55,121.26,1.72,20.22-.31,40.41-1.31,60.6-2.29l30.24-2c10.08-.69,20.14-1.71,30.2-2.54,5-.47,10.08-.81,15.1-1.39l15.06-1.64c10-1.1,20.1-2.1,30.1-3.49s20-2.54,30-3.95l30-4.52c39.88-6.42,79.59-13.84,119-22.57,9.86-2.12,19.66-4.54,29.5-6.8l14.74-3.45,14.67-3.72c9.78-2.52,19.58-4.91,29.33-7.52l29.18-8c38.81-11,77.46-22.67,115.63-35.69l14.34-4.79c4.78-1.6,9.51-3.34,14.27-5l28.51-10.09,28.34-10.55,14.17-5.29c4.71-1.77,9.38-3.66,14.08-5.49l28.14-11c9.35-3.75,18.64-7.65,28-11.47,18.69-7.54,37.12-15.69,55.64-23.63l27.51-11.91c9.14-4,18.36-7.75,27.54-11.64s18.45-7.53,27.67-11.31l27.82-11a2359,2359,0,0,1,227-74.72,2255.62,2255.62,0,0,1,709.82-77c159.17,7.78,317.44,31.86,472.3,69.72q136.15,33.27,268.56,80v-35.56q-128.51-44.21-260.8-76.39C3423.18,1202.63,3262.79,1178.65,3101.47,1171.2Z"/>
  <path d="M3112.93,1124a2351.09,2351.09,0,0,0-242.31.67,2291.05,2291.05,0,0,0-240.9,26.11q-59.85,9.67-119.06,22.57T2393,1202.21a2356,2356,0,0,0-230,75.75q-56.5,21.84-111.86,46.39l-27.51,12.09c-9.15,4-18.27,8.07-27.45,12L1968.49,1360l-13.82,5.77-13.9,5.56-27.8,11.11-28,10.64-14,5.32-14.08,5.08-28.15,10.14-28.33,9.66c-4.72,1.59-9.43,3.24-14.17,4.79l-14.24,4.57c-9.51,3-19,6.16-28.51,9.08l-28.65,8.61c-38.29,11.14-76.76,21.69-115.61,30.63s-77.82,17.3-117.11,23.9c-9.8,1.82-19.64,3.3-29.48,4.83s-19.67,3.15-29.55,4.39l-29.61,4-29.67,3.36q-59.44,6.24-119.1,8.5c-39.78,1.49-79.6,1.34-119.36-.08s-79.48-4.27-119-8.76a1634.66,1634.66,0,0,1-234.43-44.1A1782.38,1782.38,0,0,1,546,1399.73c-9.17-3.91-18.37-7.72-27.5-11.71l-27.32-12.13-27.12-12.59c-9-4.24-18-8.65-26.94-13q-53.7-26.4-105.95-55.59c-68.25-38.06-134.57-79.63-199.26-123.64q-5.94-4-11.85-8-61-41.2-120.06-85v31.41q55.53,41.45,112.73,80.66l6.64,4.52c64.42,43.84,130.52,85.38,198.66,123.43q52.83,29.64,107.2,56.36c9.1,4.38,18.15,8.86,27.28,13.17L480,1400.5l27.69,12.32c9.25,4.06,18.58,7.93,27.87,11.9a1807,1807,0,0,0,229.37,78.58,1662.44,1662.44,0,0,0,238.38,45c40.22,4.59,80.62,7.46,121.06,9s80.93,1.65,121.37.19,80.8-4.35,121-8.49l30.15-3.38,30.06-4c10-1.25,20-2.91,30-4.42s20-3,29.93-4.86c39.87-6.66,79.44-15,118.8-24.09s78.36-19.67,117.16-30.85l29-8.67c9.66-2.93,19.24-6.09,28.87-9.12l14.42-4.6c4.8-1.56,9.57-3.22,14.35-4.82l28.68-9.71,28.5-10.2,14.24-5.11,14.16-5.35,28.3-10.7,28.12-11.16,14.06-5.59,14-5.8,27.92-11.64c9.29-3.93,18.5-8,27.75-12l27.63-12.07q54.77-24.17,110.63-45.61a2316.11,2316.11,0,0,1,227.36-74.22q57.75-15.61,116.22-28.19t117.53-22a2256.51,2256.51,0,0,1,237.72-25.13,2318.85,2318.85,0,0,1,239.05,0c159.27,8.14,317.61,32.51,472.54,70.59q130.16,32,256.91,76.22v-35.74q-122.83-41.79-249.07-72.65C3434.83,1156.07,3274.37,1131.8,3112.93,1124Z"/>
  <path d="M3124.54,1076.63a2297.32,2297.32,0,0,0-720.77,76.52,2392,2392,0,0,0-230.43,75.25q-56.62,21.69-112.06,46.16l-55,24.47c-4.58,2-9.13,4.08-13.71,6l-13.8,5.85-27.59,11.7-27.77,11.24-13.89,5.62-14,5.4-28,10.77-28.13,10.3-14.06,5.14-14.15,4.9-28.3,9.78-28.48,9.26c-4.74,1.53-9.48,3.11-14.24,4.6l-14.32,4.36c-38.11,11.9-76.63,22.35-115.32,32l-29.07,7.07-29.2,6.49c-9.72,2.25-19.51,4.11-29.28,6.1s-19.53,4-29.35,5.7l-29.43,5.28-29.53,4.7-7.38,1.18-7.4,1-14.81,2.05-14.8,2-14.84,1.75-14.84,1.73c-5,.6-9.89,1.17-14.86,1.6l-29.74,2.84-29.8,2.21-7.45.56-7.46.39-14.92.78c-39.78,2-79.62,2.61-119.43,1.71s-79.58-3.38-119.2-7.24-79.13-9.11-118.34-16-78.19-15.21-116.81-24.93-76.9-20.82-114.77-33.23-75.27-26.25-112.23-41.19a2050.65,2050.65,0,0,1-216-102.83c-69.37-38-136.91-79.49-202.66-123.68l-9.37-6.18Q62.61,1092.86,0,1046.55v31.63q59.1,43.74,120.06,85,5.91,4,11.85,8c63.14,42.16,128,81.9,194.64,118.49A2076.37,2076.37,0,0,0,545.35,1394c37.49,15.19,75.46,29.25,113.9,41.92s77.36,24,116.62,33.87,78.89,18.41,118.78,25.45,80.08,12.42,120.39,16.41,80.77,6.44,121.26,7.47,81,.3,121.46-1.62l15.16-.78,7.59-.39,7.57-.55,30.28-2.21,30.23-2.84c5-.43,10.07-1,15.09-1.6l15.08-1.74,15.08-1.76,15-2.06,15-2.06,7.52-1,7.49-1.19,30-4.73,29.87-5.33a2118.47,2118.47,0,0,0,235.46-57.85l14.5-4.39c4.83-1.49,9.62-3.09,14.43-4.63L1792,1413l28.66-9.83,14.32-4.94,14.23-5.17,28.47-10.35,28.29-10.83,14.13-5.43,14.05-5.65,28.09-11.3,27.9-11.76,13.95-5.88c4.64-2,9.24-4.06,13.86-6.08l55.12-24.37q54.85-24.09,110.82-45.38a2354.6,2354.6,0,0,1,227.72-73.67,2266,2266,0,0,1,711.24-73.5c159.36,8.46,317.76,33.17,472.75,71.48q124.16,30.68,245.21,72.48v-36.27q-117-39.37-237.17-68.88C3446.65,1109.34,3286.09,1084.76,3124.54,1076.63Z"/>
  <path d="M3136.19,1029.39a2370.2,2370.2,0,0,0-242.71-.44,2299.51,2299.51,0,0,0-241.43,24.93q-60,9.42-119.39,22t-118,28.31a2355.86,2355.86,0,0,0-230.82,74.68q-56.71,21.6-112.27,45.93l-13.88,6.1-13.82,6.23-27.48,12.36L1989,1261.72l-27.56,11.83q-110.49,47.15-224.52,84l-28.62,8.86c-4.77,1.45-9.53,3-14.32,4.39l-14.39,4.14c-9.6,2.73-19.16,5.63-28.8,8.21l-28.92,7.75c-4.82,1.33-9.66,2.53-14.5,3.71l-14.54,3.59-14.53,3.59c-4.85,1.19-9.73,2.23-14.59,3.35-9.73,2.18-19.45,4.45-29.2,6.56l-29.32,6c-39.16,7.66-78.5,14.37-118,19.62s-79.23,9.09-119,11.7-79.65,3.54-119.5,3.24-79.68-2-119.38-5.45a1607.06,1607.06,0,0,1-235.84-37.74,1738.79,1738.79,0,0,1-228.06-71.66c-74.32-29.05-146.72-63.06-217.19-100.7-68.7-36.66-135.42-77.09-200.53-120q-6.24-4-12.44-8.11Q66.38,1063.55,0,1015.08v31.47q62.7,46.14,127.56,89.37l9.37,6.18c64.33,42.34,130.29,82.35,198.32,118.71,71.29,38.16,144.64,72.7,220,102.24a1765.09,1765.09,0,0,0,231.66,73,1635.53,1635.53,0,0,0,239.94,38.61c40.39,3.54,80.93,5.22,121.46,5.65s81.09-.57,121.53-3.17,80.79-6.55,121-11.74,80.11-12,119.85-19.75l29.75-6.07c9.9-2.12,19.75-4.41,29.63-6.61,4.93-1.13,9.89-2.17,14.8-3.37l14.74-3.62,14.74-3.62c4.91-1.2,9.83-2.41,14.7-3.75l29.33-7.81c9.77-2.6,19.45-5.53,29.18-8.27l14.58-4.19c4.86-1.42,9.68-2.95,14.51-4.42l29-8.91q115.77-36.91,227.25-84.47l27.86-11.89,27.68-12.33L2056,1264l13.67-6.14,13.73-6q55-23.94,111-45.14a2314.68,2314.68,0,0,1,228.08-73.11q57.93-15.33,116.53-27.61t117.83-21.34A2267,2267,0,0,1,2895,1060.78a2337,2337,0,0,1,239.4,1.11c159.46,8.85,317.94,33.82,473,72.37q118.08,29.34,233.39,68.72v-36.47q-111.26-37-225.26-65.16C3458.49,1062.77,3297.86,1037.91,3136.19,1029.39Z"/>
  <path d="M3147.9,982.1c-161.74-8.91-324.48-1.44-484.61,23.29a2317.83,2317.83,0,0,0-237.76,49.66,2382.44,2382.44,0,0,0-231.21,74.15q-56.82,21.45-112.5,45.63l-27.76,12.27-27.6,12.57-27.35,12.39-13.67,6.2-13.76,6-27.54,11.94c-9.2,3.93-18.46,7.68-27.7,11.53-18.42,7.8-37.11,14.94-55.7,22.32-37.36,14.24-74.9,28.09-112.9,40.51l-14.22,4.74c-4.74,1.59-9.53,3-14.29,4.53l-28.6,9-28.77,8.43c-4.8,1.38-9.57,2.86-14.4,4.16l-14.45,3.93-14.46,3.94c-4.82,1.32-9.64,2.64-14.49,3.82l-29.05,7.29c-9.69,2.43-19.45,4.54-29.17,6.82l-14.6,3.36-14.66,3.07-14.66,3.06c-4.88,1-9.76,2.09-14.67,3l-29.43,5.54c-9.82,1.8-19.68,3.33-29.52,5-4.92.8-9.84,1.69-14.77,2.42l-14.81,2.15c-19.73,3-39.55,5.35-59.35,7.78l-29.77,3c-5,.54-9.93.94-14.9,1.33l-14.91,1.2c-39.78,3-79.65,4.82-119.53,5s-79.75-1.15-119.53-3.89a1573.7,1573.7,0,0,1-236.5-34.51q-58.44-13-115.74-30.3T575.26,1305.9a1965.58,1965.58,0,0,1-218.39-98.4c-71.11-37.19-140.17-78.22-207.45-122.12l-6.43-4.11c-48.65-31.25-96.23-64.07-143-98v31.79q66.38,48.47,135.19,93.55,6.21,4.08,12.44,8.11c63.69,41.26,129.2,79.83,196.48,115.16a1993.4,1993.4,0,0,0,221.35,100q56.89,21.59,115.1,39.24T798.23,1402a1601.81,1601.81,0,0,0,240.65,35.34q60.78,4.22,121.64,4.07c40.57-.17,81.12-2,121.56-5l15.17-1.2c5-.38,10.11-.78,15.15-1.33l30.26-3c20.12-2.44,40.27-4.74,60.31-7.79l15-2.17c5-.73,10-1.62,15-2.42,10-1.69,20-3.22,30-5l29.88-5.57c5-.88,9.94-2,14.9-3l14.89-3.08,14.87-3.09,14.81-3.39c9.87-2.29,19.77-4.42,29.6-6.85l29.48-7.36c4.92-1.18,9.81-2.51,14.69-3.84l14.66-4,14.66-4c4.9-1.31,9.73-2.8,14.6-4.19l29.16-8.48,29-9c4.83-1.52,9.68-3,14.48-4.56l14.41-4.78c38.5-12.5,76.49-26.44,114.31-40.79,18.82-7.42,37.72-14.61,56.36-22.46,9.34-3.87,18.72-7.65,28-11.6l27.85-12,13.91-6,13.82-6.23,27.64-12.47,27.33-12.4,27.45-12.07q55.06-23.83,111.21-44.88a2347.5,2347.5,0,0,1,228.43-72.58,2287.29,2287.29,0,0,1,234.68-48.33c158-23.94,318.49-30.86,478-21.63s318.11,34.51,473.23,73.28q112,28,221.48,65v-36.67q-105.42-34.68-213.28-61.45C3470.39,1016.18,3309.69,991,3147.9,982.1Z"/>
  <path d="M3159.77,934.84a2386.7,2386.7,0,0,0-243.11-1.61,2314.33,2314.33,0,0,0-242,23.68c-160.35,24.19-318,65.73-469.72,122.59q-56.92,21.33-112.7,45.42l-13.94,6-13.88,6.17-13.86,6.2-13.8,6.35L1982,1174.79c-36.61,16.24-73.36,32.17-110.61,46.83l-14,5.56-7,2.78-7,2.66-28.08,10.63-7,2.65-7.06,2.53-14.13,5.06c-9.42,3.34-18.8,6.86-28.3,10l-28.42,9.61c-9.48,3.19-19,6.1-28.57,9.16l-14.3,4.54c-4.76,1.51-9.58,2.87-14.36,4.31l-28.76,8.53c-38.48,10.85-77.19,20.89-116.18,29.71s-78.25,16.28-117.68,22.69q-59.2,9.36-118.84,14.91l-29.84,2.5-29.88,1.87-7.47.46-7.48.3-15,.6-15,.57-15,.27c-39.89.75-79.83.23-119.66-2.09s-79.59-6-119.15-11.15-78.93-11.83-118-20.09a1695.65,1695.65,0,0,1-230.09-65.88,1974.37,1974.37,0,0,1-219.56-96.13c-71.28-36.34-140.47-76.78-207.95-120l-1.24-.8-5.65-3.57Q73.9,1005,0,951.63v31.66c46.76,33.91,94.34,66.73,143,98l6.43,4.11c66.05,42.17,133.83,81.79,203.73,117.5a2002.54,2002.54,0,0,0,222.61,97.71,1723.92,1723.92,0,0,0,233.88,67.2q59.67,12.6,120.06,20.57T1051,1399.81c40.55,2.41,81.19,3,121.79,2.25l15.22-.25,15.22-.58,15.21-.59,7.61-.3,7.6-.46L1264,1398l30.34-2.49q60.66-5.61,120.8-14.94,60.1-9.76,119.51-22.82c39.56-8.88,78.83-19,117.86-29.92l29.16-8.59c4.85-1.45,9.73-2.82,14.56-4.34l14.49-4.58c9.65-3.08,19.35-6,29-9.23l28.8-9.67c9.62-3.15,19.11-6.69,28.66-10l14.31-5.1,7.15-2.55,7.11-2.67,28.42-10.7,7.1-2.67,7.06-2.8,14.11-5.6c37.7-14.76,74.87-30.79,111.88-47.13l55.06-25.14,13.65-6.25,13.71-6.1,13.72-6.08,13.78-5.93q55.17-23.72,111.39-44.66a2317,2317,0,0,1,228.82-72,2271.19,2271.19,0,0,1,473.65-70.42,2355.66,2355.66,0,0,1,239.76,2.26c159.67,9.57,318.28,35.15,473.48,74.17q105.86,26.6,209.5,61.21v-36.9q-99.49-32.38-201.14-57.73C3482.45,969.57,3321.66,944.08,3159.77,934.84Z"/>
  <path d="M3171.68,887.53c-162-9.64-325-3-485.55,20.86a2312.44,2312.44,0,0,0-238.44,48.4,2367.86,2367.86,0,0,0-232,73q-57,21.17-112.94,45.12c-9.32,4-18.58,8.1-27.87,12.14l-27.72,12.48L1992.27,1125c-18.13,8.55-36.53,16.49-54.83,24.65-4.57,2.07-9.18,4-13.8,6l-13.83,5.86-13.84,5.86c-4.61,2-9.23,3.9-13.88,5.75-18.59,7.47-37.11,15.11-55.87,22.14l-14,5.37c-4.67,1.8-9.35,3.6-14.06,5.28l-28.24,10.24c-37.76,13.32-75.72,26.09-114.12,37.39l-14.37,4.33c-4.79,1.43-9.62,2.72-14.44,4.09l-28.9,8.07c-19.37,5-38.68,10.2-58.18,14.66-19.42,4.8-39,8.82-58.54,13.1-19.63,3.8-39.21,7.84-58.94,11.08l-14.77,2.57c-4.92.89-9.87,1.55-14.81,2.33-9.88,1.47-19.74,3.08-29.64,4.45l-29.72,3.88c-9.91,1.28-19.85,2.22-29.78,3.34-158.91,17-320.23,10.64-477-20.07-78.43-15.15-155.61-36.59-231.06-63Q539,1222.46,483.79,1199q-55.18-23.62-108.92-50.4a2370,2370,0,0,1-208.69-117.95l-7.14-4.41C104.83,992.54,51.9,956.89,0,919.85v31.78q73.94,53.22,151,102.16l5.65,3.57q99.94,63.2,205.77,116.29,54.42,27.27,110.4,51.21t113.5,44.1c76.63,26.88,155.13,48.77,234.94,64.27,159.55,31.44,323.9,38,485.47,21,10.09-1.13,20.21-2.07,30.28-3.35l30.22-3.89c10.06-1.37,20.08-3,30.13-4.46,5-.79,10-1.45,15-2.34l15-2.58c20-3.26,39.93-7.32,59.87-11.15,19.83-4.3,39.73-8.35,59.43-13.19,19.79-4.49,39.39-9.75,59-14.76l29.32-8.13c4.88-1.38,9.78-2.68,14.65-4.12l14.57-4.35c38.93-11.4,77.4-24.25,115.64-37.67l28.6-10.32c4.78-1.68,9.51-3.5,14.24-5.31l14.2-5.41c19-7.08,37.73-14.77,56.55-22.29,4.71-1.86,9.38-3.81,14-5.79l14-5.9,14-5.9c4.68-2,9.33-3.93,14-6,18.51-8.21,37.13-16.21,55.46-24.81l54.82-25.32,27.42-12.28c9.18-4,18.33-8,27.55-11.94q55.27-23.57,111.61-44.36a2330.82,2330.82,0,0,1,229.17-71.41,2282.44,2282.44,0,0,1,235.3-47.08c158.37-23.12,319.12-29.18,478.86-19.24S3488.11,956.7,3643.38,996q99.69,25.2,197.43,57.47v-37.11q-93.54-30.12-189-54C3494.55,923,3333.69,897.14,3171.68,887.53Z"/>
  <path d="M3183.66,840.27a2406.27,2406.27,0,0,0-243.51-2.8,2328.72,2328.72,0,0,0-242.51,22.4c-160.76,23.33-318.9,64-471.23,120.11q-57.15,21.06-113.15,44.89-28,11.89-55.7,24.51c-9.22,4.21-18.47,8.39-27.62,12.75L2002.52,1075c-72.58,34.18-146.36,65.85-221.64,93.42-37.54,14-75.56,26.71-113.76,38.77l-28.73,8.77c-9.59,2.91-19.25,5.52-28.87,8.29l-14.44,4.1-14.52,3.85c-9.68,2.52-19.35,5.14-29,7.58q-58.3,14.49-117.27,25.69-59.06,10.9-118.6,18.12l-29.8,3.34-29.86,2.69-7.47.66-7.48.51-15,1-15,1-15,.69c-39.92,1.89-79.91,2.48-119.86,1.29A1570.31,1570.31,0,0,1,838,1270.21a1647.85,1647.85,0,0,1-232-59.93A1909.81,1909.81,0,0,1,384.06,1119a2371.26,2371.26,0,0,1-210.31-116.44c-2.08-1.29-4.14-2.59-6.22-3.89l-.2-.12Q115.38,966.84,64.9,932.91q-32.73-22-64.9-44.85v31.79c51.9,37,104.83,72.69,159,106.41l7.14,4.41c66.63,41.08,135.09,79.33,205.55,113.69a1934.73,1934.73,0,0,0,225.19,92.85,1674.55,1674.55,0,0,0,236,61.21,1599.15,1599.15,0,0,0,242.58,25.28c40.67,1.25,81.38.7,122-1.18l15.24-.69,15.22-1,15.22-1,7.61-.51,7.6-.66,30.38-2.7,30.31-3.35q60.6-7.15,120.55-18.19,60-11.2,119.09-25.86c9.85-2.46,19.65-5.1,29.48-7.64l14.73-3.87,14.65-4.13c9.76-2.8,19.56-5.44,29.28-8.36l29.14-8.83c38.72-12.15,77.26-24.93,115.28-39.06,76.25-27.77,150.9-59.65,224.28-94.05l27.36-12.78c9-4.3,18.19-8.41,27.31-12.55q27.39-12.39,55.06-24.11,55.38-23.46,111.8-44.12A2288,2288,0,0,1,2941.43,870.4a2374.48,2374.48,0,0,1,240.12,3.43c159.88,10.3,318.65,36.51,474,76q93.49,23.77,185.27,53.74v-37.3q-87.54-27.87-176.71-50.35C3506.73,876.38,3345.78,850.26,3183.66,840.27Z"/>
  <path d="M3195.74,792.92c-162.19-10.38-325.54-4.68-486.49,18.36a2334.45,2334.45,0,0,0-472,118.88q-114.63,41.94-224.42,94.66-108.52,52.68-220.93,95.75c-75,28.39-151.27,53.58-228.79,73.92l-14.52,3.88L1534,1202c-9.73,2.35-19.43,4.86-29.2,7.08l-29.31,6.57c-4.88,1.14-9.79,2.1-14.7,3.09l-14.72,3c-39.27,7.8-78.73,14.65-118.43,19.75-158.65,21.32-320.32,19.69-478.13-6.62s-311.29-77-456.06-145.69q-54.35-25.75-107.25-54.41-52.07-28.4-102.75-59.22l-7.74-4.62C115.73,934.8,57.2,896.41,0,856.2v31.86q32.17,22.82,64.9,44.85,50.49,33.93,102.43,65.66l.2.12q51.83,31.74,105.19,60.85,53.52,29.16,108.6,55.26c73.43,34.79,149,65.41,226.45,90.38q58.07,18.77,117.4,33.43c39.53,9.75,79.42,18.08,119.6,24.73,160.68,27,325.42,28.76,486.74,7.3,40.37-5.12,80.49-12,120.39-19.84l14.95-3c5-1,10-2,14.93-3.12l29.77-6.62c9.92-2.22,19.76-4.76,29.65-7.12l14.81-3.61,14.73-3.9c78.68-20.49,156-45.87,232-74.47,75.87-28.9,150.44-61.28,223.47-96.34q108.7-52.08,221.78-93.08a2300.83,2300.83,0,0,1,465.86-116c158.74-22.27,319.78-27.44,479.72-16.77s318.81,37.24,474.22,77q87.27,22.32,173.06,50V916.25q-81.48-25.65-164.37-46.66C3519,829.78,3358,803.32,3195.74,792.92Z"/>
  <path d="M3207.89,745.65a2429.29,2429.29,0,0,0-243.92-4,2343.7,2343.7,0,0,0-243,21.08,2314.46,2314.46,0,0,0-239.48,46.44,2384.55,2384.55,0,0,0-233.28,71.12Q2133.34,922,2023.3,974.44l-54.59,26.13c-9,4.39-18.21,8.48-27.33,12.68s-18.25,8.4-27.42,12.5l-27.6,12.07-13.81,6-13.9,5.8-27.8,11.59-28,11.1-14,5.56-14.09,5.3-28.18,10.6-28.36,10.07-14.19,5-14.27,4.77c-38,13-76.41,24.52-115,35.37l-29,7.86c-9.7,2.53-19.45,4.88-29.16,7.33-4.87,1.2-9.72,2.46-14.6,3.6l-14.65,3.34-14.66,3.34c-4.88,1.13-9.77,2.23-14.68,3.2l-29.44,6.08c-9.83,1.94-19.7,3.67-29.54,5.51-4.93.88-9.84,1.88-14.79,2.66l-14.83,2.42c-9.88,1.57-19.75,3.32-29.68,4.62-39.62,6-79.47,10.15-119.38,13.22s-79.95,4.74-120,4.69a1563.55,1563.55,0,0,1-239.2-17.81,1605.34,1605.34,0,0,1-233.87-53.76A1832.92,1832.92,0,0,1,403,1059.16a2267.66,2267.66,0,0,1-212.73-112.6q-4.86-2.91-9.72-5.86C118.79,904.31,58.71,865.22,0,824.25v32c57.2,40.21,115.73,78.6,175.73,114.66l7.74,4.62A2289.45,2289.45,0,0,0,391,1085.17,1862.06,1862.06,0,0,0,618.76,1173a1633.31,1633.31,0,0,0,238,55,1592.25,1592.25,0,0,0,243.63,18.41c40.76.09,81.51-1.61,122.14-4.63s81.17-7.32,121.45-13.3c10.1-1.31,20.13-3.07,30.19-4.65l15.07-2.42c5-.79,10-1.79,15-2.68,10-1.86,20-3.6,30-5.55l29.91-6.11c5-1,10-2.09,14.92-3.23l14.88-3.36,14.89-3.36c4.95-1.16,9.88-2.43,14.82-3.63,9.87-2.47,19.76-4.84,29.61-7.39l29.47-7.92c39.17-10.93,78.17-22.54,116.66-35.63l14.46-4.81,14.39-5.05,28.74-10.16,28.55-10.67,14.27-5.34,14.18-5.6,28.34-11.18,28.15-11.68,14.06-5.83,14-6.07,27.92-12.15c9.28-4.13,18.5-8.39,27.74-12.58s18.51-8.35,27.65-12.77l54.76-26.08q108.9-51.87,222.2-92.56a2295.23,2295.23,0,0,1,706.23-134.79,2390.83,2390.83,0,0,1,240.49,4.62c160.08,11.06,319,37.87,474.48,77.91q81,20.85,160.76,46.31V866.26q-75.37-23.47-151.95-43C3531.35,783.14,3370.24,756.42,3207.89,745.65Z"/>
  <path d="M3220.11,698.31C3057.69,687.18,2894,692,2732.67,714.13a2337.75,2337.75,0,0,0-473.52,116.28Q2144.07,871.75,2033.81,924c-9.23,4.28-18.34,8.81-27.5,13.22l-27.24,13.16c-9.07,4.35-18.09,8.79-27.19,13.06l-27.37,12.65-13.69,6.32L1897,988.5l-27.57,12.18-27.77,11.74-13.89,5.85c-4.63,2-9.31,3.76-14,5.65l-28,11.22c-9.35,3.67-18.76,7.16-28.14,10.76l-14.08,5.35c-4.7,1.79-9.45,3.42-14.16,5.14l-28.35,10.19-28.52,9.68-14.27,4.82-14.35,4.55c-9.57,3-19.12,6.12-28.72,9.06l-28.86,8.54a1951.07,1951.07,0,0,1-234.61,53c-158.28,25.62-320.17,28.72-478.91,6.92a1615.06,1615.06,0,0,1-234.73-50.63q-57.7-17-114.07-38t-111.36-45.58c-73.32-32.65-144.58-70-213.93-110.62q-3.86-2.25-7.69-4.53Q93,857,0,792.3v32c58.71,41,118.79,80.06,180.56,116.45l3.78,2.23c70.1,41.19,142.23,79.13,216.6,112.34q55.76,25,113,46.41t115.94,38.78a1644.52,1644.52,0,0,0,239,51.82q60.63,8.34,121.77,12.07c40.73,2.51,81.55,3.54,122.34,2.81s81.54-2.78,122.17-6.28,81.08-8.76,121.35-15a1982.26,1982.26,0,0,0,238.35-53.37l29.29-8.61c9.74-2.95,19.42-6.09,29.13-9.13l14.56-4.58,14.47-4.86,28.92-9.75,28.73-10.27c4.78-1.73,9.6-3.38,14.35-5.18l14.27-5.39c9.5-3.62,19-7.14,28.51-10.84l28.33-11.3c4.72-1.9,9.47-3.72,14.15-5.69l14.06-5.9,28.11-11.82,27.91-12.27,14-6.13,13.85-6.36,27.69-12.74c9.2-4.3,18.33-8.77,27.5-13.14L2020,965.34c9.06-4.34,18.06-8.8,27.18-13q109.16-51.55,222.64-92A2304.47,2304.47,0,0,1,2737.1,747c159.13-21.39,320.44-25.68,480.59-14.25s319.17,38.64,474.72,78.91q74.74,19.32,148.4,42.58v-38q-69.24-21.32-139.46-39.32C3543.75,736.6,3382.57,709.5,3220.11,698.31Z"/>
  <path d="M3232.39,651q-122.13-8.68-244.32-5.26a2361.55,2361.55,0,0,0-243.6,19.74,2328.38,2328.38,0,0,0-240.18,45.08,2381.9,2381.9,0,0,0-234.12,69.85q-115.3,41-225.82,93c-9.18,4.39-18.4,8.69-27.55,13.16L1989.43,900l-27.14,13.22-13.57,6.59L1935,926.2,1907.7,939l-27.54,12.33c-18.31,8.35-36.91,16-55.39,24-37.17,15.33-74.52,30.27-112.38,43.78-18.83,7-37.92,13.31-56.91,19.88-9.54,3.15-19.12,6.17-28.68,9.26l-14.35,4.6L1598,1057.1c-38.4,11.82-77.23,22.12-116.24,31.61l-29.31,6.88-29.45,6.28c-9.79,2.19-19.68,3.91-29.52,5.84l-14.78,2.84c-4.93,1-9.88,1.71-14.83,2.57-39.51,7-79.29,12.38-119.17,16.52s-79.91,7-120,8.08-80.17.92-120.21-.82-80-5.25-119.78-10.11-79.36-11.28-118.67-19.17-78.29-17.4-116.9-28.21a1761,1761,0,0,1-226.59-80.86A2151.1,2151.1,0,0,1,207.41,890q-5.78-3.33-11.54-6.69C128.71,845.25,63.58,803.8,0,760.23V792.3q93,64.46,191.11,121.49l2,1.15A2176,2176,0,0,0,411,1025.22a1790,1790,0,0,0,230.23,82.45c39.29,11,79,20.79,119,28.87s80.36,14.64,120.88,19.67,81.25,8.63,122,10.45,81.66,2.14,122.47,1,81.58-3.91,122.17-8.08,81.06-9.59,121.24-16.64c5-.87,10.08-1.63,15.08-2.6l15-2.84c10-2,20.07-3.68,30-5.89l29.92-6.32,29.78-6.93c39.64-9.55,79.07-19.93,118-31.85l14.64-4.36,14.55-4.64c9.69-3.12,19.42-6.16,29.09-9.33,19.26-6.62,38.62-12.94,57.71-20,38.39-13.62,76.22-28.67,113.87-44.11,18.71-8,37.55-15.71,56.07-24.12l27.88-12.41,27.66-12.86,13.84-6.42,13.73-6.64,27.45-13.31L2030.54,915c9-4.39,18.16-8.62,27.24-12.94a2400.17,2400.17,0,0,1,223.08-91.4A2342.67,2342.67,0,0,1,2512,742.42a2296.34,2296.34,0,0,1,236.89-43.79A2327.73,2327.73,0,0,1,2989,679.85a2397.66,2397.66,0,0,1,240.86,5.84c160.3,11.81,319.36,39.3,475,79.85q68.43,17.82,136,38.91V766.26q-63-19.21-126.91-35.68C3556.23,690,3395,662.53,3232.39,651Z"/>
  <path d="M3244.73,603.69c-162.65-11.93-326.6-8-488.39,13.2a2317.06,2317.06,0,0,0-240.53,44.39q-59.54,14.25-118.19,31.54t-116.36,37.65Q2165.73,771.21,2055,822.93c-9.26,4.26-18.44,8.67-27.62,13.09s-18.32,8.9-27.45,13.42l-54.33,26.76c-36.38,17.28-72.87,34.32-109.93,50.06l-13.86,6-6.94,3-7,2.86-27.94,11.45-7,2.86-7,2.74-14.06,5.47-14.07,5.47-7,2.73-7.08,2.6-28.32,10.41c-4.71,1.77-9.45,3.43-14.21,5.06l-14.25,4.94c-19,6.75-38.14,12.76-57.24,19-9.59,3-19.23,5.87-28.84,8.82l-14.43,4.37-14.5,4.1c-9.68,2.69-19.33,5.54-29,8.11l-29.16,7.6-7.3,1.89-7.32,1.75-14.66,3.5-14.65,3.5c-4.89,1.15-9.82,2.15-14.72,3.24-9.82,2.1-19.61,4.32-29.45,6.32l-29.57,5.77q-59.25,11.06-119,18.21-59.85,6.93-120,9.69c-40.08,1.93-80.22,2.06-120.31.84s-80.13-4-120-8.23a1608.18,1608.18,0,0,1-236.39-44.15A1762.5,1762.5,0,0,1,432.59,968q-55.6-23.37-109.68-50.1T216.2,861.55q-8.53-4.78-17-9.66Q98.37,795.39,3,730.19l-3-2.05v32.09c63.58,43.57,128.71,85,195.87,123.09l6.11,3.46Q255.2,916.86,310,944t111.22,51a1793.42,1793.42,0,0,0,231.45,79.72A1637.8,1637.8,0,0,0,893.45,1120q61,6.57,122.3,8.55c40.85,1.29,81.76,1.2,122.58-.71s81.57-5.11,122.16-9.72c40.57-4.8,81-11,121.11-18.36l30.06-5.8c10-2,20-4.25,29.95-6.36,5-1.1,10-2.11,15-3.27l14.89-3.52,14.89-3.53,7.45-1.76,7.41-1.9,29.62-7.66c9.87-2.6,19.66-5.46,29.48-8.18l14.73-4.13,14.65-4.41c9.75-3,19.53-5.84,29.27-8.88,19.38-6.31,38.85-12.37,58.07-19.17l14.45-5c4.82-1.65,9.64-3.32,14.41-5.1l28.71-10.5,7.18-2.62,7.12-2.76,14.26-5.5,14.25-5.51,7.12-2.76,7.08-2.89L1819.9,967l7.07-2.88,7-3,14-6c37.53-15.85,74.47-33,111.27-50.4l54.7-26.81c9-4.45,18-8.91,27.14-13.2s18.15-8.69,27.3-12.88q109.62-51,223.52-90.82a2314.14,2314.14,0,0,1,231.49-67.62,2287.32,2287.32,0,0,1,237.22-43.1c159.5-20.49,321.09-23.88,481.45-11.68s319.53,40.07,475.23,80.84q62.1,16.26,123.46,35.2V716.28q-56.82-17.12-114.29-32C3568.76,643.42,3407.42,615.66,3244.73,603.69Z"/>
  <path d="M3257.15,556.38q-122.3-9.28-244.72-6.52a2382.4,2382.4,0,0,0-244.15,18.36,2348.09,2348.09,0,0,0-240.9,43.68,2383.72,2383.72,0,0,0-235,68.55q-115.78,40.38-226.79,91.84l-27.67,13-27.52,13.36L1956,825.78l-13.54,6.73c-4.51,2.25-9.09,4.35-13.63,6.54l-27.29,13c-9.09,4.35-18.32,8.4-27.46,12.62l-13.76,6.27-6.87,3.13-6.93,3c-73.75,32.45-148.78,62-225.3,87-19.07,6.46-38.35,12.18-57.57,18.14-9.65,2.86-19.33,5.56-29,8.34l-14.51,4.14-14.58,3.85c-38.83,10.51-78,19.54-117.43,27.49-157.56,31.68-319.5,42.58-479.4,27.26q-60-5.57-119.36-15.77t-117.79-25q-58.43-14.7-115.71-33.57c-38.17-12.56-75.87-26.58-113.12-41.72A2047.79,2047.79,0,0,1,225.12,833q-8.25-4.56-16.47-9.18C140.88,786.7,75.1,746.17,10.94,703.36Q5.47,699.7,0,696v32.14l3,2.05q95.35,64.93,196.17,121.7,5.93,3.32,11.86,6.61a2073.25,2073.25,0,0,0,220.59,106c37.82,15.42,76.13,29.72,114.94,42.55s78.08,24.29,117.73,34.31S744,1060,784.26,1067s80.91,12.37,121.64,16.24,81.61,6.22,122.52,6.94,81.84-.24,122.67-2.56,81.57-6.24,122.11-11.53c10.13-1.31,20.28-2.57,30.37-4.2s20.22-3,30.3-4.68l30.19-5.28c5-.83,10-1.84,15.06-2.83l15-3c40.06-8,79.91-17.1,119.35-27.69l14.81-3.89,14.73-4.16c9.82-2.81,19.66-5.53,29.45-8.42,19.5-6,39.09-11.76,58.43-18.27,77.65-25.19,153.7-55,228.38-87.65l7-3.05,7-3.15,13.92-6.31c9.26-4.25,18.61-8.33,27.8-12.71l27.62-13.09c4.59-2.2,9.23-4.32,13.79-6.59l13.7-6.77,54.46-27,27.2-13.13,27.35-12.81q109.86-50.75,224-90.19a2345.16,2345.16,0,0,1,231.88-67,2317.54,2317.54,0,0,1,237.54-42.4,2347.72,2347.72,0,0,1,240.66-17.43q120.87-2.47,241.23,7.09c160.51,12.56,319.72,40.77,475.49,81.82q55.74,14.69,110.9,31.53V666.32q-50.55-15.06-101.61-28.38C3581.38,596.81,3420,568.67,3257.15,556.38Z"/>
  <path d="M3269.63,509c-162.88-12.73-327.14-9.75-489.34,10.55a2325,2325,0,0,0-241.25,43,2360.49,2360.49,0,0,0-235.42,67.84q-116,40.11-227.25,91.28l-13.91,6.4-13.83,6.56-13.83,6.57-13.75,6.72-13.75,6.73-13.67,6.88-27.2,13.68-27,13.56c-9,4.52-18.16,8.79-27.23,13.19l-13.64,6.56-6.81,3.28-6.87,3.16-27.48,12.65c-9.13,4.29-18.39,8.26-27.61,12.33s-18.44,8.17-27.71,12.11l-27.9,11.68c-4.66,1.92-9.28,3.93-14,5.79l-14.05,5.58c-9.37,3.7-18.71,7.49-28.11,11.12l-28.29,10.64c-9.4,3.62-18.91,7-28.4,10.31s-19,6.82-28.5,10l-28.66,9.55-7.17,2.39-7.21,2.26-14.41,4.49c-19.17,6.17-38.57,11.56-57.89,17.21-38.81,10.69-77.85,20.53-117.19,29s-78.94,15.51-118.72,21.42q-59.74,8.58-119.86,13.08c-40.07,3.09-80.26,4.34-120.43,4.31s-80.35-1.57-120.39-4.75A1586.83,1586.83,0,0,1,683,978.67a1729,1729,0,0,1-229.94-72.42c-74.9-29.44-147.86-63.88-218.86-102q-12.36-6.65-24.62-13.44-43.9-23.73-86.79-49.25c-35.11-20.86-69.63-42.67-103.72-65.09Q9.5,670.15,0,663.78V696q5.46,3.69,10.94,7.36C75.1,746.17,140.88,786.7,208.65,823.78q5.79,3.16,11.59,6.3c71.88,38.73,145.85,73.79,221.93,103.81a1758.35,1758.35,0,0,0,233.87,74,1616.26,1616.26,0,0,0,242.42,38.5c40.83,3.3,81.79,4.87,122.73,5s81.91-1.14,122.74-4.23,81.53-7.42,122-13.16q60.74-9,120.78-21.61c40-8.53,79.68-18.44,119.1-29.22,19.63-5.69,39.33-11.13,58.79-17.34l14.64-4.53,7.31-2.28,7.27-2.4L1643,947c9.69-3.22,19.27-6.74,28.92-10.1s19.27-6.74,28.8-10.39l28.69-10.72c9.53-3.66,19-7.47,28.49-11.2L1772.1,899c4.75-1.87,9.43-3.89,14.15-5.83l28.26-11.76c9.39-4,18.7-8.14,28.07-12.2s18.72-8.11,28-12.43L1898.36,844l7-3.19,6.9-3.3,13.8-6.6c9.19-4.44,18.44-8.73,27.56-13.28L1980.93,804l27.19-13.6,13.51-6.77,13.6-6.62,13.59-6.61,13.67-6.45,13.66-6.45,13.75-6.29q110.08-50.48,224.42-89.63a2322.05,2322.05,0,0,1,232.29-66.26,2289,2289,0,0,1,237.86-41.71c159.89-19.56,321.76-22.06,482.33-9.06s319.9,41.49,475.74,82.8q49.36,13.08,98.27,27.86V616.36q-44.23-13.05-88.85-24.75C3594.05,550.21,3432.55,521.81,3269.63,509Z"/>
  <path d="M3282.17,461.73q-122.46-9.87-245.13-7.8A2356.73,2356.73,0,0,0,2314.9,580.35Q2198.67,620.09,2087.14,671q-55.79,25.47-110.26,53.53l-27.05,13.7c-9,4.52-18,9.22-27.08,13.56-18.18,8.78-36.25,17.77-54.62,26.14-9.16,4.23-18.29,8.55-27.47,12.72L1813,802.9,1799.15,809l-13.93,5.89-27.87,11.78L1729.27,838l-14,5.63L1701.09,849l-28.27,10.74-28.47,10.21c-4.74,1.68-9.47,3.44-14.24,5.07l-14.33,4.83c-9.56,3.18-19.07,6.52-28.67,9.58l-28.83,9.1-7.2,2.28-7.25,2.14-14.5,4.26c-19.28,5.85-38.78,10.9-58.21,16.23-19.54,4.85-39,10-58.7,14.27-19.59,4.66-39.35,8.52-59.06,12.58-19.8,3.6-39.57,7.42-59.47,10.42-39.74,6.32-79.67,11.48-119.76,14.85s-80.25,5.55-120.46,6.16q-60.36.67-120.54-3.17a1542.86,1542.86,0,0,1-238.57-34.08q-59-13-116.74-30.51T463.55,875Q407.06,853.54,352,828.59c-36.7-16.65-72.86-34.51-108.56-53.27q-11.16-5.88-22.27-11.89c-66.36-35-130.94-73.28-193.88-113.95Q13.6,640.58,0,631.55v32.23q9.51,6.36,19.07,12.67c34.09,22.42,68.61,44.23,103.72,65.09q42.88,25.47,86.79,49.25,10,5.4,20.07,10.73c36.15,19.06,72.8,37.22,110,54.17s75,32.74,113.25,47.3,77,27.86,116.2,39.78S648,965.05,688,974a1573,1573,0,0,0,243.18,35.07q61.41,4,122.9,3.39,61.53-.88,122.77-6.11c40.83-3.38,81.5-8.57,122-15,20.25-3,40.36-6.88,60.51-10.52,20-4.1,40.15-8,60.07-12.69,20-4.32,39.81-9.5,59.68-14.38,19.74-5.37,39.56-10.47,59.14-16.37l14.72-4.29,7.36-2.16,7.32-2.29,29.27-9.17c9.74-3.09,19.4-6.45,29.1-9.66l14.54-4.87c4.84-1.64,9.63-3.41,14.45-5.11l28.88-10.3,28.67-10.82,14.34-5.42,14.23-5.68,28.46-11.37,28.24-11.87,14.13-5.94,14-6.17,28-12.37c9.3-4.2,18.54-8.54,27.81-12.81,18.6-8.43,36.89-17.48,55.29-26.33,9.23-4.36,18.27-9.1,27.4-13.64l27.31-13.76q53.87-27.63,109-52.64a2416.75,2416.75,0,0,1,224.9-89A2313,2313,0,0,1,2796.47,505.2a2368,2368,0,0,1,241.16-16.05q121.1-1.83,241.6,8.35c160.73,13.33,320.08,42.25,476,83.8q43,11.44,85.58,24.16v-39q-37.87-11-76-21.1C3606.78,503.68,3445.21,474.81,3282.17,461.73Z"/>
  <path d="M3294.79,414.38c-163.11-13.59-327.67-11.47-490.3,7.82a2353,2353,0,0,0-242,41.53,2376.62,2376.62,0,0,0-236.29,66.46q-116.46,39.42-228.25,90-55.9,25.32-110.52,53.25l-54.16,27.76c-9,4.66-18.09,9-27.15,13.47s-18.12,8.94-27.23,13.3l-27.43,12.87-13.72,6.44-13.82,6.2-27.65,12.39-27.84,11.92-13.92,5.95c-4.65,2-9.35,3.82-14,5.74l-28.06,11.38c-9.39,3.71-18.83,7.27-28.24,10.91l-14.13,5.43c-4.72,1.8-9.48,3.46-14.22,5.2l-28.45,10.33-28.63,9.78-14.33,4.86-14.41,4.6c-9.61,3-19.19,6.22-28.84,9.13q-57.92,17.55-116.62,32-58.84,14.07-118.34,24.58-59.6,10.2-119.66,16.45c-40,4.24-80.25,6.64-120.47,7.79l-15.08.41c-5,.17-10.06.09-15.09.15l-15.09.07c-5,0-10.06.06-15.09-.07L975.61,942l-30.15-1.24q-60.33-3.06-120.2-10.71t-119-20a1677,1677,0,0,1-232.07-66.43,1981.13,1981.13,0,0,1-221.35-97.3q-15-7.73-29.89-15.67-41.56-21.57-82.24-44.81-53.25-30.52-105-63.52Q17.75,610.91,0,599.23v32.32q13.59,9,27.29,17.93c62.94,40.67,127.52,78.93,193.88,113.95q9,4.74,18,9.41A2008.83,2008.83,0,0,0,463.8,872a1709.09,1709.09,0,0,0,236.22,68q60.29,12.63,121.33,20.52t122.57,11.08l30.75,1.31,30.77.62c5.13.15,10.26.12,15.39.09l15.38,0c5.13,0,10.26,0,15.39-.12L1067,973c41-1.12,82-3.5,122.78-7.77s81.44-9.68,121.85-16.58Q1372.2,938,1432,923.82q59.76-14.46,118.52-32.29c9.81-2.93,19.52-6.14,29.29-9.2l14.63-4.64,14.54-4.9,29.07-9.86,28.87-10.41c4.8-1.75,9.63-3.43,14.42-5.24l14.33-5.47c9.54-3.68,19.12-7.26,28.64-11l28.44-11.48c4.73-1.93,9.51-3.78,14.21-5.78l14.11-6,28.22-12,28-12.48,14-6.24,13.89-6.48,27.77-13c9.22-4.39,18.38-8.93,27.56-13.39s18.41-8.87,27.48-13.57l54.39-27.73q54-27.48,109.21-52.35A2414.35,2414.35,0,0,1,2336.93,562a2320.87,2320.87,0,0,1,471.61-105.17c160.28-18.57,322.42-20.22,483.21-6.39s320.26,43,476.25,84.81q36.54,9.79,72.81,20.51V516.48q-31.47-9.08-63.14-17.49C3619.61,457.05,3457.94,427.92,3294.79,414.38Z"/>
  <path d="M3307.45,367.05c-163.22-14-327.93-12.34-490.77,6.46a2361.87,2361.87,0,0,0-479,106.57q-116.7,39.09-228.75,89.4-56,25.17-110.78,53-13.68,6.93-27.29,14.06l-27,14c-9,4.61-18,9.32-27,13.85l-27.19,13.45q-109,53.58-222.2,96.94c-9.41,3.65-18.94,7-28.4,10.52s-19,7-28.51,10.22l-28.63,9.88-28.8,9.34-14.42,4.64-14.49,4.36c-9.67,2.88-19.3,5.91-29,8.65L1466,840.47l-7.29,2-7.33,1.88-14.65,3.77-14.65,3.76c-4.89,1.26-9.82,2.33-14.72,3.51-9.82,2.27-19.62,4.64-29.46,6.84l-29.59,6.27-7.4,1.56-7.43,1.4-14.86,2.82c-39.63,7.38-79.47,13.69-119.51,18.19q-60.09,7-120.45,9.63-60.42,2.43-120.79.37l-15.08-.58-7.55-.29c-2.51-.11-5-.29-7.54-.44l-30.14-1.89-30.09-2.54c-10-.92-20-2.11-30-3.15Q777.36,886.73,718,875.31c-79.13-15.11-157-36.76-233.09-63.4q-57.13-20-112.76-43.85T262.37,717q-17.44-8.73-34.71-17.77-94-48-183.45-104.16Q22,581.18,0,566.84v32.39q17.76,11.67,35.69,23.09,51.74,33,105,63.52,40.66,23.25,82.24,44.81,12.95,6.71,26,13.26,54.92,27.63,111.39,51.94t114.57,44.73c77.38,27.21,156.66,49.39,237.33,64.91q60.52,11.75,121.73,18.83c10.21,1.08,20.41,2.3,30.63,3.25l30.7,2.64,30.75,2c2.56.15,5.12.34,7.68.46l7.7.31,15.39.62q61.63,2.14,123.18-.21,61.59-2.72,122.76-9.64c40.81-4.53,81.37-10.9,121.71-18.35l15.12-2.84,7.56-1.42,7.53-1.58,30.1-6.33c10-2.22,20-4.62,30-6.92,5-1.18,10-2.27,15-3.53l14.9-3.8,14.9-3.8,7.45-1.9,7.41-2,29.63-8.2c9.86-2.76,19.64-5.82,29.47-8.72l14.72-4.4,14.64-4.67L1592,835.8l29.06-10c9.71-3.25,19.32-6.8,28.93-10.31s19.28-6.92,28.83-10.6q115-43.59,225.17-97.68l27.52-13.55c9.16-4.55,18.21-9.3,27.32-13.94l27.2-14q13.46-7,27-13.82,54.12-27.36,109.46-52.06a2408.17,2408.17,0,0,1,225.81-87.72,2325,2325,0,0,1,472.35-103.75c160.47-18.09,322.75-19.28,483.64-5s320.45,43.7,476.51,85.82q30.09,8.12,60,16.85v-39.5q-25-7.12-50.21-13.86C3632.46,410.48,3470.72,381,3307.45,367.05Z"/>
  <path d="M3320.16,319.73c-163.34-14.41-328.2-13.22-491.25,5.09a2365.89,2365.89,0,0,0-479.84,105.12q-116.94,38.74-229.25,88.76-56.16,25-111.05,52.69c-18.28,9.17-36.51,18.74-54.51,28.2l-26.94,14-13.48,7-13.58,6.78-27.17,13.56-27.36,13.13c-18.19,8.88-36.68,17.09-55.06,25.54-4.59,2.14-9.22,4.16-13.86,6.17l-13.91,6.06L1749,697.88l-7,3-7,2.9-28,11.6-7,2.9-7.06,2.78-14.11,5.54a2174.31,2174.31,0,0,1-230,76.33l-29.31,7.63c-4.87,1.31-9.79,2.45-14.7,3.62l-14.73,3.5-14.72,3.5-14.8,3.2c-9.87,2.08-19.71,4.34-29.61,6.27-39.56,8-79.4,14.47-119.37,19.8s-80.17,8.92-120.41,11.26S1010.62,865,970.33,864a1539.7,1539.7,0,0,1-240.39-23.73Q670.38,829.6,611.8,814.52c-9.74-2.62-19.52-5.06-29.22-7.81l-29.08-8.34-28.91-8.92c-9.62-3-19.17-6.29-28.75-9.43A1890.35,1890.35,0,0,1,272,687.68q-15.9-7.8-31.66-15.85c-64.14-31.7-126.55-66.76-187.46-104.09Q26.23,551.41,0,534.44v32.4q22,14.32,44.21,28.27,89.39,56.11,183.45,104.16,15.48,7.92,31.08,15.61A1923.68,1923.68,0,0,0,486.05,809c9.75,3.21,19.47,6.54,29.25,9.65l29.42,9.12,29.61,8.53c9.88,2.82,19.84,5.33,29.76,8q59.71,15.49,120.4,26.44a1571.14,1571.14,0,0,0,245.2,24.57c41.1,1,82.24.1,123.27-2.14s82-5.87,122.74-11.3,81.3-11.89,121.56-20,80.24-17.42,119.89-28a2207.44,2207.44,0,0,0,233.56-77l14.32-5.59,7.15-2.8,7.1-2.92L1747.7,734l7.1-2.93,7-3,14.1-6.11,14.1-6.11c4.71-2,9.41-4.06,14-6.21,18.62-8.51,37.36-16.8,55.78-25.73l27.71-13.22,27.5-13.66,13.75-6.83,13.64-7L1969.73,629c18.06-9.44,35.89-18.75,54-27.8Q2078,574,2133.46,549.39a2410.37,2410.37,0,0,1,226.28-87.07A2329.67,2329.67,0,0,1,2832.82,360c160.66-17.6,323.08-18.33,484.08-3.69s320.63,44.44,476.77,86.82q23.63,6.42,47.14,13.21V416.65q-18.58-5.23-37.22-10.25C3645.37,363.91,3483.54,334.08,3320.16,319.73Z"/>
  <path d="M3332.94,272.4c-163.46-14.81-328.47-14.1-491.73,3.72a2369.75,2369.75,0,0,0-480.63,103.65,2455.94,2455.94,0,0,0-229.76,88.1q-56.3,24.87-111.32,52.39Q1992,534,1964.82,548.42l-53.92,28.36c-72.12,37-145.62,71.15-220.62,101.62-18.82,7.41-37.56,15.09-56.56,22l-14.2,5.33c-4.74,1.78-9.46,3.57-14.24,5.22l-28.61,10.09-7.16,2.52-7.2,2.38-14.4,4.77c-9.6,3.15-19.16,6.43-28.85,9.33l-29,8.94L1461,757.39c-38.91,10.91-78.08,20.92-117.61,29.26s-79.21,15.89-119.19,21.49-80.1,10.17-120.34,13.07-80.6,4.12-120.93,3.94c-10.09-.15-20.18-.11-30.25-.41l-30.24-1L892.19,822c-5-.24-10.06-.65-15.09-1.06L862,819.78Q801.69,814.68,742,805c-39.83-6.41-79.37-14.6-118.57-24.15s-78.06-20.59-116.5-33c-9.58-3.19-19.2-6.23-28.75-9.54l-28.58-10-28.39-10.58c-9.45-3.57-18.81-7.37-28.22-11.05q-56.28-22.62-111.09-48.61-22-10.38-43.68-21.33-35-17.16-69.45-35.59c-9-4.9-18.1-9.69-27.06-14.68l-26.87-15L88.17,556c-8.87-5.15-17.63-10.5-26.44-15.74Q30.6,521.49,0,501.89v32.55q26.25,17,52.9,33.3c60.91,37.33,123.32,72.39,187.46,104.09q14.16,7,28.42,13.77,55.59,26.53,112.76,49.54c9.57,3.75,19.07,7.63,28.68,11.27l28.86,10.8,29.07,10.24c9.71,3.37,19.5,6.49,29.25,9.75Q556.11,796.23,616,811c40,9.79,80.25,18.21,120.88,24.81s81.47,11.76,122.47,15.28l15.38,1.25c5.13.42,10.26.84,15.4,1.1L921,855.16l30.85,1.08c10.28.32,20.58.3,30.86.47q61.79.31,123.35-3.83c41-2.9,82-7.39,122.66-13.14s81.17-13.21,121.38-21.7,80.06-18.56,119.62-29.56l29.62-8.45,29.45-9c9.84-2.92,19.55-6.23,29.31-9.41l14.62-4.8,7.32-2.4,7.26-2.55,29-10.18c4.85-1.66,9.65-3.47,14.46-5.26l14.41-5.37c19.29-7,38.29-14.73,57.39-22.21,76.07-30.71,150.55-65.16,223.55-102.38L1980.46,578q26.85-14.16,54-27.68,54.38-27.08,110-51.48a2425,2425,0,0,1,226.76-86.4A2333.85,2333.85,0,0,1,2845,311.61c160.86-17.11,323.42-17.38,484.52-2.34s320.81,45.19,477,87.84q17.13,4.68,34.22,9.57V366.75q-12.07-3.37-24.17-6.65C3658.34,317.34,3496.44,287.15,3332.94,272.4Z"/>
  <path d="M3345.77,225.08c-163.58-15.23-328.74-15-492.2,2.33a2374.49,2374.49,0,0,0-481.44,102.17A2456.24,2456.24,0,0,0,2141.86,417q-56.43,24.74-111.59,52.1-27.57,13.69-54.82,28l-54,28.69L1908,533c-4.47,2.38-9,4.62-13.53,6.94l-27.11,13.78c-4.51,2.32-9.06,4.56-13.62,6.76L1840,567.08c-9.13,4.4-18.18,9-27.37,13.23-18.4,8.49-36.67,17.29-55.25,25.36L1729.63,618l-28,11.83c-4.67,2-9.32,4-14,5.88l-14.1,5.65-28.21,11.27-28.4,10.75c-4.74,1.77-9.45,3.64-14.22,5.33l-14.3,5.1c-38.05,13.84-76.6,26.21-115.36,37.8L1443.9,720l-29.3,7.85c-4.89,1.28-9.75,2.67-14.67,3.86l-14.73,3.6-14.73,3.6-7.36,1.8-7.4,1.64-29.6,6.57c-9.9,2.07-19.82,4-29.73,6s-19.85,3.76-29.8,5.51-19.88,3.61-29.88,5c-39.88,6.51-80,11.21-120.26,14.71s-80.59,5.55-121,5.8c-161.51,1.75-323-22.66-477.39-70.53a1809.38,1809.38,0,0,1-226.26-87.13q-19.75-9.17-39.31-18.71c-62.14-29.45-122.7-62.07-181.85-96.92Q35,491.61,0,469.38v32.51q30.6,19.59,61.73,38.38c8.81,5.24,17.57,10.59,26.44,15.74l26.63,15.42,26.87,15c9,5,18,9.78,27.06,14.68q34.4,18.44,69.45,35.59,20.28,9.93,40.78,19.45a1840.86,1840.86,0,0,0,230,88.93c157.12,49,322,74.21,486.84,72.67,41.19-.19,82.36-2.26,123.39-5.72s81.95-8.24,122.58-14.8c10.19-1.45,20.3-3.34,30.44-5.09s20.28-3.48,30.35-5.57,20.19-3.94,30.26-6l30.13-6.63,7.54-1.66,7.49-1.82,15-3.64,15-3.64c5-1.21,9.94-2.61,14.92-3.9l29.79-7.95,29.63-8.52c39.41-11.68,78.58-24.17,117.21-38.12l14.52-5.15c4.85-1.7,9.62-3.58,14.44-5.37l28.83-10.85L1685.87,672l14.3-5.7c4.76-1.94,9.47-4,14.21-5.94l28.38-11.92,28.18-12.4c18.84-8.13,37.34-17,56-25.55,9.31-4.3,18.48-8.9,27.73-13.33l13.85-6.71c4.61-2.22,9.23-4.46,13.78-6.81l27.46-13.88c4.56-2.33,9.17-4.58,13.7-7l13.6-7.17L1991.13,527q26.94-14.09,54.18-27.54,54.51-26.93,110.22-51.17a2421.69,2421.69,0,0,1,227.23-85.73,2338.11,2338.11,0,0,1,474.55-99.38c161.05-16.62,323.74-16.43,485-1s321,45.93,477.3,88.86q10.63,2.93,21.24,5.93V316.85l-11.07-3C3671.37,270.77,3509.37,240.25,3345.77,225.08Z"/>
  <path d="M2866,178.68a2378.52,2378.52,0,0,0-482.23,100.68A2450.91,2450.91,0,0,0,2153,366.12q-56.58,24.57-111.87,51.8-27.64,13.62-55,27.88-13.65,7.14-27.23,14.42l-13.55,7.32-13.43,7.18-26.86,14.34c-9,4.79-18,9.31-27,14s-18,9.36-27.12,13.8l-27.32,13.43c-4.56,2.21-9.08,4.52-13.68,6.66l-13.76,6.47-27.54,12.93-27.76,12.45L1727,575l-14,6-28,11.94-28.18,11.42-14.09,5.7-14.19,5.45-28.39,10.87-28.59,10.31c-4.76,1.7-9.51,3.46-14.3,5.12l-14.39,4.87c-9.6,3.21-19.16,6.57-28.8,9.66l-29,9.15a1900.1,1900.1,0,0,1-235.85,57c-39.87,6.8-79.93,12.43-120.15,16.49s-80.59,6.46-121,7.49-80.82.38-121.16-1.8-80.59-5.94-120.65-11.23a1607.53,1607.53,0,0,1-236.92-50.61C451.78,660,375.88,631.41,301.94,598.36Q273.53,585.67,245.53,572,160.84,532.1,79.81,484.91,39.46,461.54,0,436.77v32.61q35,22.22,70.67,43.31c59.15,34.85,119.71,67.47,181.85,96.92q18.28,8.67,36.75,17c75.06,33.68,152.23,62.9,231.27,86.26a1636.88,1636.88,0,0,0,241.54,52q61.3,8.2,123.13,11.66c41.17,2.29,82.43,3.1,123.65,2s82.39-3.51,123.42-7.45,81.85-9.74,122.46-16.61a1938.06,1938.06,0,0,0,240-57.62l29.44-9.23c9.79-3.13,19.5-6.51,29.26-9.75l14.62-4.91c4.86-1.67,9.69-3.45,14.53-5.17l29-10.4,28.82-11,14.4-5.5,14.3-5.74,28.59-11.53,28.37-12,14.18-6,14.08-6.27,28.14-12.55,27.91-13,14-6.53c4.66-2.15,9.24-4.48,13.86-6.71L1865.91,547c9.23-4.49,18.31-9.28,27.47-13.9s18.33-9.26,27.38-14.07L1948,504.6l13.58-7.22,13.4-7.2q13.42-7.15,26.92-14.18,27-14,54.3-27.4,54.64-26.78,110.48-50.86a2415.55,2415.55,0,0,1,227.7-85,2341,2341,0,0,1,475.29-97.9c161.25-16.13,324.08-15.47,485.4.39s321.18,46.66,477.56,89.89c2.74.75,5.49,1.53,8.23,2.29V267c-157.79-43-319.17-73.7-482.17-89.22C3195,162.1,3029.65,161.87,2866,178.68Z"/>
  <path d="M2878.43,130a2384.22,2384.22,0,0,0-483,99.17c-157,49.51-308.76,115.27-453,194.32q-106.9,58.94-218.16,108.49c-37.19,16.23-74.55,32.12-112.48,46.49l-14.19,5.49c-4.72,1.84-9.51,3.5-14.27,5.26l-28.58,10.41L1526,609.46l-14.39,4.91L1497.12,619c-38.53,12.62-77.54,23.65-116.75,33.82l-29.47,7.39L1321.29,667c-9.84,2.36-19.79,4.23-29.7,6.31l-14.87,3.06c-5,1-10,1.86-14.92,2.8-39.76,7.61-79.84,13.48-120,18.12-20.08,2.46-40.24,4.13-60.39,5.88l-30.27,2c-10.1.64-20.2.94-30.3,1.43q-60.68,2.34-121.28.08c-40.41-1.56-80.74-4.85-120.89-9.6S698.53,686,658.85,678.15s-79-17.43-118-28.32S463.29,626.63,425.15,613s-75.76-28.7-112.94-44.84q-25.6-11.19-50.9-23c-58.73-26.78-116.15-56.33-172.26-88.06q-45.07-25.6-89-53v32.72q39.46,24.78,79.81,48.14Q160.75,532.06,245.53,572q27,12.71,54.25,24.68c37.75,16.46,76,31.84,114.79,45.77S492.65,669,532.35,680.17s79.83,20.88,120.28,29.07,81.25,14.6,122.23,19.53,82.15,8.33,123.4,10,82.55,1.62,123.79.12c10.31-.48,20.62-.77,30.92-1.41l30.88-2c20.55-1.75,41.12-3.42,61.6-5.89,41-4.67,81.83-10.59,122.34-18.27,5.07-.95,10.16-1.77,15.2-2.83l15.15-3.09c10.08-2.1,20.22-4,30.25-6.37l30.14-6.85,30-7.46c39.89-10.28,79.57-21.45,118.73-34.18l14.72-4.67,14.62-4.94,29.22-10,29-10.5c4.83-1.78,9.7-3.45,14.49-5.31l14.4-5.53c38.52-14.5,76.42-30.52,114.14-46.89,75.19-33.29,148.91-69.92,221-109.26,142.55-77.74,292.3-142.24,447.15-190.68a2345.89,2345.89,0,0,1,476-96.41c161.44-15.62,324.42-14.5,485.84,1.76,159.8,16.05,318.07,46.79,473,89.59V217.08c-153.66-41.45-310.67-71.17-469.25-86.67C3207.77,114.36,3042.32,113.66,2878.43,130Z"/>
  <path d="M2890.93,81.26a2388.34,2388.34,0,0,0-483.84,97.65c-157.35,49-309.46,114.32-454,193l-53.78,29.31c-8.9,4.92-18,9.53-27,14.25l-27,14.09c-36.31,18.26-72.75,36.3-109.81,53-18.41,8.59-37.1,16.53-55.72,24.65-4.64,2.06-9.33,4-14,5.93l-14.08,5.81c-9.4,3.83-18.72,7.87-28.21,11.47l-28.36,11.08c-4.72,1.88-9.48,3.62-14.25,5.37l-14.28,5.26c-19,7.18-38.24,13.58-57.4,20.26-9.62,3.21-19.3,6.27-28.94,9.4l-14.48,4.67-14.57,4.38c-9.72,2.88-19.4,5.91-29.16,8.67l-29.3,8.13-7.33,2-7.36,1.88-14.73,3.75L1348.52,619c-4.91,1.26-9.86,2.32-14.79,3.49-9.88,2.26-19.73,4.64-29.63,6.81l-29.75,6.22c-39.74,7.89-79.71,14.64-119.87,19.87s-80.51,8.8-120.93,11l-30.33,1.4-30.34.7c-5.06.17-10.12.13-15.18.13H942.52c-10.11.1-20.23-.21-30.34-.45-40.46-1-80.88-3.46-121.14-7.64a1587.13,1587.13,0,0,1-238.63-43.9,1767.8,1767.8,0,0,1-229.82-78.84q-29.2-12.33-58-25.61-28.38-12.66-56.39-26.19-55.65-27-109.7-57.05Q48.57,401.31,0,371.37v32.68q44,27.36,89.05,53c56.11,31.73,113.53,61.28,172.26,88.06q24.4,11.13,49.09,21.62a1804.3,1804.3,0,0,0,233.87,80.61,1617.45,1617.45,0,0,0,243.44,45.19c41.09,4.34,82.37,6.93,123.67,8,10.32.26,20.65.59,31,.51l15.49,0c5.17,0,10.34.06,15.5-.1l31-.67,30.95-1.38q61.92-3.37,123.38-11c41-5.27,81.69-12.08,122.18-20l30.3-6.28c10.08-2.2,20.11-4.59,30.17-6.88,5-1.18,10.06-2.26,15.06-3.52l15-3.8,15-3.79,7.5-1.9,7.46-2.05,29.81-8.22c9.93-2.79,19.77-5.85,29.66-8.77l14.81-4.42,14.72-4.71c9.8-3.17,19.64-6.25,29.42-9.5,19.47-6.74,39-13.2,58.32-20.44l14.51-5.31c4.84-1.76,9.68-3.51,14.47-5.41l28.8-11.18c9.63-3.64,19.09-7.71,28.63-11.56l14.29-5.86c4.77-1.94,9.53-3.91,14.23-6,18.89-8.19,37.86-16.2,56.53-24.86,37.58-16.8,74.5-35,111.29-53.37l27.39-14.19c9.12-4.76,18.29-9.41,27.3-14.36l54-29.28c142.9-77.38,293-141.41,448.16-189.37A2350.84,2350.84,0,0,1,2894.42,118c161.63-15.12,324.74-13.53,486.27,3.14,155.4,16,309.32,45.78,460.12,87V167.23c-149.52-39.87-302.14-68.68-456.28-84.12C3220.63,66.64,3055,65.46,2890.93,81.26Z"/>
  <path d="M2903.48,32.54a2392.38,2392.38,0,0,0-484.63,96.12C2261.17,177.19,2108.7,242,1963.73,320.38q-13.61,7.33-27.1,14.84L1909.8,350c-8.94,4.87-17.83,9.83-26.8,14.63l-27,14.21-13.51,7.11-13.61,6.89-27.24,13.75c-9.09,4.57-18.3,8.88-27.44,13.34l-13.74,6.63-6.87,3.31-6.92,3.19c-73.72,34.35-148.84,65.69-225.6,92.3-19.12,6.87-38.48,13-57.77,19.32-9.68,3.06-19.42,5.93-29.12,8.9L1419.6,558,1405,562.08c-39,11.25-78.43,20.9-118.07,29.5L1272,594.73c-5,1-9.91,2.16-14.9,3.06l-29.88,5.64c-10,1.84-20,3.37-30,5.07-5,.8-10,1.72-15,2.43l-15,2.15c-20,3-40.19,5.27-60.31,7.62l-30.26,2.91c-5,.53-10.09.84-15.14,1.21l-15.15,1.1q-60.69,4.16-121.45,3.72-60.79-.67-121.32-6C763.21,620,723,615,683.06,608.13s-79.61-15.17-118.94-25-78.3-21-116.8-33.8-76.57-26.84-114.16-42.14q-35.54-14.49-70.46-30.34-78.87-34.77-154.67-76Q53.17,371.08,0,338.55v32.82Q48.59,401.29,98.49,429q54,30,109.7,57.05,28,13.53,56.39,26.19,28.14,12.53,56.65,24.2,57.33,23.5,116.12,43.06t119,34.63q60.2,15.17,121.32,25.7c40.74,7.09,81.81,12.26,123,16s82.53,5.82,123.88,6.36q62.1.49,124-3.58l15.46-1.1c5.16-.38,10.32-.69,15.46-1.22l30.87-2.92c20.53-2.35,41.08-4.6,61.51-7.66l15.35-2.17c5.12-.72,10.2-1.64,15.3-2.45,10.19-1.71,20.41-3.25,30.57-5.11l30.45-5.7c5.09-.9,10.13-2,15.18-3.08l15.16-3.19c40.37-8.68,80.52-18.45,120.2-29.81l14.91-4.17,14.81-4.46c9.87-3,19.78-5.9,29.62-9,19.6-6.41,39.29-12.59,58.72-19.52,78-26.85,154.26-58.46,229-93.08l7-3.22,7-3.33,13.93-6.69c9.26-4.49,18.6-8.84,27.81-13.44l27.61-13.85,13.79-7,13.68-7.16L1899.29,395c9.08-4.83,18.08-9.82,27.13-14.72l27-14.77q13.35-7.37,26.78-14.58c143.27-77,293.73-140.58,449.17-188.05a2355.94,2355.94,0,0,1,477.5-93.38C3068.71,54.92,3232,57,3393.59,74.05c151,15.91,300.55,44.78,447.22,84.4V117.38c-145.35-38.32-293.57-66.23-443.25-81.59C3233.54,18.92,3067.78,17.25,2903.48,32.54Z"/>
  <path d="M1974.45,268.73c-18.16,9.7-36.27,19.78-54.16,29.75l-26.75,14.76-13.37,7.38-13.5,7.16-27,14.32c-9,4.73-18.13,9.26-27.19,13.9l-13.61,6.93-6.81,3.45-6.87,3.35-27.45,13.36c-9.11,4.53-18.39,8.72-27.6,13s-18.43,8.64-27.71,12.81l-27.91,12.35c-4.66,2-9.28,4.17-14,6.14l-14.07,5.91c-9.38,3.92-18.73,7.93-28.14,11.78L1590,456.39c-4.73,1.86-9.42,3.82-14.19,5.59l-14.27,5.36c-9.53,3.54-19,7.23-28.58,10.64-19.18,6.74-38.29,13.68-57.64,19.88-19.24,6.55-38.71,12.34-58.12,18.34-39,11.41-78.22,22-117.79,31.06s-79.44,16.8-119.5,23.21q-60.18,9.39-120.79,14.55l-30.32,2.29-30.37,1.6-7.59.39-7.6.22-15.2.43c-5.07.13-10.14.34-15.2.4l-15.2.07c-10.14.05-20.27.19-30.4-.1l-15.2-.28c-5.07-.09-10.14-.14-15.2-.4l-30.38-1.27-30.34-2q-60.69-4.56-120.79-13.79T576,549.4a1700.41,1700.41,0,0,1-232.12-72.95q-30.54-12.12-60.67-25.21C226.84,427.51,171.71,401,117.74,372.5Q57.85,340.88,0,305.74v32.81Q53.21,371,108,400.87q75.74,41.2,154.67,76,34.46,15.19,69.46,29.15a1740.16,1740.16,0,0,0,236.38,74.71Q629,595.1,690.35,604.66T813.69,619l31,2.08,31,1.36c5.17.28,10.35.34,15.52.45l15.53.32c10.35.31,20.7.19,31,.17l15.52-.05c5.18-.06,10.35-.25,15.52-.37l15.52-.42,7.76-.2,7.75-.38,31-1.57,31-2.27q61.9-5.22,123.25-14.6c40.86-6.46,81.47-14.37,121.81-23.42s80.26-19.83,119.93-31.36c19.75-6.05,39.57-11.91,59.13-18.52,19.68-6.27,39.1-13.27,58.59-20.08,9.74-3.44,19.36-7.17,29-10.74l14.5-5.42c4.84-1.78,9.6-3.77,14.41-5.64l28.78-11.39c9.56-3.89,19-7.93,28.57-11.89l14.27-6c4.76-2,9.45-4.13,14.18-6.19l28.31-12.47c9.42-4.2,18.73-8.62,28.1-12.92s18.76-8.57,28-13.14l27.83-13.48,7-3.37,6.9-3.49,13.79-7c9.18-4.68,18.42-9.25,27.55-14l27.33-14.43,13.67-7.22,13.54-7.43,27.09-14.88c17.92-9.94,35.63-19.76,53.63-29.32C2134.61,223.1,2285.41,160,2441.14,113a2361,2361,0,0,1,478.25-91.86c162-14.12,325.4-11.57,487.15,5.9,146.56,15.8,291.76,43.75,434.27,81.82V67.53A2962.33,2962.33,0,0,0,3504.65,0H2779.44a2398,2398,0,0,0-348.75,78.39C2272.68,126.4,2119.82,190.78,1974.45,268.73Z"/>
  <path d="M1985.17,217.11q-27.33,14.53-54.33,29.7l-26.82,15-26.72,14.87-27,14.45c-9,4.77-17.93,9.71-27,14.29-18.14,9.27-36.19,18.74-54.55,27.58-9.15,4.47-18.27,9-27.45,13.43l-27.66,13-13.84,6.48-14,6.23L1658,384.57l-28.1,11.93-14.06,6-14.16,5.7-28.33,11.39-28.54,10.82-14.28,5.39-14.37,5.13c-9.59,3.39-19.14,6.9-28.76,10.19-19.3,6.41-38.53,13.05-58,18.91-19.36,6.21-39,11.66-58.48,17.31-9.79,2.7-19.64,5.24-29.45,7.86-4.92,1.28-9.82,2.65-14.75,3.86l-14.81,3.58-14.82,3.58-7.4,1.8-7.44,1.63-29.77,6.51c-9.94,2-19.92,3.92-29.89,5.89s-20,3.7-30,5.42c-20,3.63-40.09,6.42-60.18,9.36l-30.21,3.78c-5,.69-10.09,1.15-15.13,1.67l-15.15,1.54A1535.62,1535.62,0,0,1,587.88,515.3c-9.88-2.28-19.82-4.37-29.67-6.8l-29.55-7.37-29.39-8c-9.77-2.73-19.49-5.7-29.24-8.54Q411.68,467,354.66,445.35q-38.91-14.69-77.09-31.23-19.14-8-38.1-16.41c-9.43-4.27-18.92-8.4-28.28-12.79l-28.08-13.2-27.85-13.67c-9.26-4.59-18.42-9.38-27.64-14.07Q62.71,310.35,0,272.82v32.92q57.89,35,117.74,66.76c54,28.54,109.1,55,165.43,78.74q29.82,12.56,60.1,24.07,58,22.14,117.45,40.16c9.93,2.91,19.83,5.95,29.8,8.75l30,8.19L550.6,540c10,2.51,20.18,4.66,30.26,7a1569.3,1569.3,0,0,0,494.29,30.1l15.46-1.54c5.15-.52,10.31-1,15.44-1.67l30.83-3.8c20.5-3,41-5.77,61.4-9.42,10.2-1.73,20.42-3.41,30.56-5.46s20.34-3.88,30.48-6l30.34-6.57,7.58-1.65,7.54-1.81,15.09-3.61L1335,532c5-1.22,10-2.61,15-3.9,10-2.65,20-5.21,30-7.93,19.88-5.71,39.82-11.21,59.52-17.49,19.81-5.93,39.37-12.63,59-19.1,9.78-3.33,19.49-6.87,29.24-10.3l14.61-5.17,14.51-5.45,29-10.93,28.77-11.5,14.38-5.76,14.27-6,28.53-12.05,28.3-12.57,14.15-6.29,14-6.53,28-13.09c9.32-4.44,18.56-9,27.84-13.54,18.61-8.92,36.89-18.47,55.29-27.82,9.22-4.61,18.26-9.59,27.38-14.4l27.29-14.56,27.06-15,26.9-15q26.67-14.91,53.68-29.2c144-76.25,295.14-138.92,451.17-185.4a2365.38,2365.38,0,0,1,267.4-63H2544q-51,12.95-101.5,28.11C2284.17,75.63,2130.94,139.55,1985.17,217.11Z"/>
  <path d="M3840.81,17.7q-36-9.27-72.22-17.7H3564.88q139.24,22.92,275.93,59.25Z"/>
  <path d="M1941.5,195l-53.67,30.2c-17.72,10.12-35.78,19.62-53.71,29.35-8.94,4.91-18.07,9.47-27.11,14.19s-18.1,9.42-27.2,14l-27.41,13.58-13.7,6.79-13.82,6.54-27.65,13.08-27.86,12.6-13.93,6.28c-4.64,2.12-9.36,4-14,6.07l-28.1,12c-9.39,4-18.86,7.69-28.29,11.55l-14.16,5.75c-4.71,1.93-9.49,3.67-14.24,5.52l-28.53,10.93-28.72,10.39L1485,409.09,1470.54,414c-9.65,3.24-19.28,6.56-29,9.72q-58.14,18.75-117.19,34.14-59.16,15.09-119.06,26.49-60,11.06-120.56,18l-30.3,3.17L1024.11,508l-7.59.62c-2.53.18-5.06.3-7.6.45l-15.2.87-15.21.88-15.22.51c-40.58,1.47-81.22,1.47-121.79-.42A1525.12,1525.12,0,0,1,600,481a1640,1640,0,0,1-234.32-66.86q-38-13.95-75.4-29.51-20.12-8.15-40.05-16.72-57.08-24.56-112.55-52.55c-37-18.57-73.37-38.32-109.23-58.92Q14.14,248.2,0,239.83v33Q62.7,310.28,127.62,344c9.22,4.69,18.38,9.48,27.64,14.07l27.85,13.67,28.08,13.2c9.36,4.39,18.85,8.52,28.28,12.79q19,8.42,38.1,16.41,38.15,15.94,77,30.24a1679.87,1679.87,0,0,0,238.8,68.56A1556.11,1556.11,0,0,0,840,544c41.44,2,83,2.1,124.42.69l15.55-.5,15.53-.85,15.53-.86c2.59-.15,5.18-.27,7.77-.45l7.75-.61,31-2.49,30.94-3.16q61.85-7,123-18.13,61.11-11.56,121.36-26.72,60.16-15.58,119.3-34.5c9.85-3.18,19.63-6.54,29.45-9.81l14.7-4.92,14.61-5.23,29.2-10.5,29-11c4.82-1.86,9.68-3.62,14.47-5.57l14.38-5.8c9.57-3.89,19.2-7.67,28.73-11.66l28.53-12.16c4.74-2,9.54-4,14.24-6.13l14.14-6.33,28.27-12.72,28-13.2,14-6.6,13.9-6.84,27.79-13.7c9.23-4.64,18.37-9.43,27.56-14.13s18.41-9.36,27.47-14.31c18.16-9.81,36.46-19.38,54.41-29.58l53.71-30.08q26.75-14.83,53.82-29c144.36-75.84,295.87-138,452.2-184Q2487.85,6.3,2511,0H2383.68A2530.83,2530.83,0,0,0,1996,165.47Q1968.57,179.95,1941.5,195Z"/>
  <path d="M3840.81,0h-38.14q19.11,4.74,38.14,9.71Z"/>
  <path d="M1952.21,143.2q-13.57,7.53-27.06,15.17l-13.46,7.71-13.35,7.55-26.66,15.09c-4.43,2.54-8.91,5-13.4,7.41l-13.46,7.32c-9,4.85-17.91,9.81-26.94,14.57l-27.16,14.17q-108.9,56.49-222.31,102.34c-37.92,15-76,29.52-114.7,42.37l-14.47,4.94-14.55,4.64c-9.71,3.07-19.4,6.22-29.13,9.22-19.54,5.73-39,11.68-58.72,16.83-19.6,5.53-39.42,10.19-59.16,15.15-19.86,4.42-39.67,9.12-59.66,12.94-10,2-19.93,4.08-30,5.77s-20,3.63-30,5.29l-30.15,4.66c-5,.82-10.07,1.43-15.1,2.1l-15.13,2c-40.34,5.06-80.86,8.89-121.46,10.89s-81.27,2.44-121.9,1.34-81.19-3.92-121.6-8.36-80.63-10.43-120.58-18c-79.9-15.14-158.53-36.87-235.37-63.73Q333,367.35,290.24,349.66,217.78,321,147.8,286.41,92,259,37.83,228.55,18.81,217.89,0,206.84v33q14.15,8.37,28.4,16.56c35.86,20.6,72.23,40.35,109.23,58.92s74.5,36.18,112.55,52.55q19.94,8.58,40.05,16.72,37.51,15.17,75.71,28.63c78.23,27.49,158.42,49.74,240,65.4q61.17,11.7,123.14,18.63c41.27,4.62,82.73,7.65,124.24,8.8s83.07.83,124.55-1.11,82.85-5.78,124-10.85l15.44-2c5.14-.67,10.29-1.29,15.41-2.12l30.77-4.69c10.24-1.66,20.44-3.55,30.66-5.32s20.39-3.79,30.56-5.82c20.39-3.86,40.58-8.59,60.83-13.06,20.11-5,40.31-9.71,60.27-15.3,20.07-5.21,39.9-11.22,59.8-17,9.91-3,19.76-6.2,29.65-9.3l14.81-4.7,14.71-5c39.34-13,78.08-27.64,116.6-42.8q115.47-46.23,225.6-103.27l27.52-14.28c9.15-4.8,18.2-9.8,27.3-14.69l13.62-7.37c4.56-2.45,9.1-4.92,13.58-7.48l27-15.2,26.78-15.17q13.34-7.53,26.74-14.92,26.81-14.76,54-28.9A2504.18,2504.18,0,0,1,2360.74,0H2255.23a2565.94,2565.94,0,0,0-248.39,113.79Q1979.35,128.19,1952.21,143.2Z"/>
  <path d="M1908.86,121.88l-26.67,15.23c-8.9,5-17.71,10.21-26.69,15.1l-26.89,14.73-13.45,7.35-13.57,7.14c-72.26,38.2-146,73.59-221.49,104.69-37.64,15.8-75.85,30.18-114.28,43.83l-28.92,10c-9.65,3.29-19.4,6.28-29.09,9.44L1393.25,354l-14.64,4.39c-9.78,2.89-19.52,5.88-29.32,8.69q-58.87,16.62-118.56,29.7-59.79,12.72-120.23,21.45l-30.26,4.05c-10.1,1.2-20.23,2.25-30.34,3.39s-20.25,1.92-30.39,2.84l-15.2,1.31-15.22,1-15.23.95-7.62.48-7.62.3-30.49,1.16-30.51.46c-5.08.14-10.16,0-15.25,0l-15.25-.13q-61.07-.84-121.83-6.46c-40.51-3.72-80.84-9.32-120.92-16.32S544.49,395.67,505,385.58,426.57,363.76,388,350.77q-43.11-14.59-85.46-31.27-73.47-28.1-144.45-62C104.23,231.72,51.57,203.68,0,173.83v33q18.81,11,37.83,21.71Q92,259,147.8,286.41,217.7,321,290.24,349.66q43.22,17.1,87.25,32.08c39.32,13.29,79.1,25.32,119.34,35.68s80.86,19.19,121.78,26.46,82.11,13,123.51,16.94,82.94,6.2,124.5,6.87l15.59.17c5.2,0,10.39.17,15.59,0l31.18-.4,31.15-1.12,7.79-.3,7.78-.47,15.56-.94,15.55-1,15.54-1.31c10.34-.91,20.71-1.61,31-2.84s20.66-2.18,31-3.39l30.89-4.06q61.76-8.76,122.69-21.62,60.9-13.16,120.82-30c10-2.84,19.9-5.86,29.85-8.78l14.91-4.44,14.82-4.72c9.87-3.19,19.79-6.22,29.61-9.55l29.42-10.06c39.09-13.79,77.93-28.33,116.17-44.27,76.69-31.41,151.5-67.12,224.74-105.64l13.75-7.2,13.63-7.4,27.25-14.86c9.09-4.92,18-10.15,27-15.22l26.94-15.3Q1980,122.42,2034.41,94.3q99.87-51.63,204-94.3h-92.74q-64.83,29.28-127.95,62.1Q1962.59,90.74,1908.86,121.88Z"/>
  <path d="M1919.5,69.87l-53.43,30.79c-8.84,5.16-17.81,10.07-26.77,15l-26.86,14.84c-72,38.89-145.55,74.84-220.65,107.07-75.21,31.92-151.88,60.42-230.12,83.66L1347,325.66l-14.74,4.12c-9.83,2.7-19.63,5.54-29.5,8.13l-29.64,7.55-7.41,1.88-7.45,1.72-14.9,3.45-14.9,3.44c-5,1.12-10,2.09-15,3.15-10,2-19.94,4.24-30,6.12l-30.06,5.54c-5,1-10,1.7-15.07,2.52l-15.09,2.42c-5,.79-10.06,1.67-15.1,2.37l-15.14,2.07c-10.09,1.34-20.17,2.89-30.3,3.92s-20.23,2.33-30.36,3.38L1002,390.15q-60.94,4.83-122,5l-30.54-.2-30.52-.91c-5.09-.1-10.17-.43-15.25-.69l-15.25-.82c-10.17-.44-20.31-1.34-30.46-2.11q-60.93-4.8-121.27-14.37a1622.65,1622.65,0,0,1-237.41-57.3q-42.35-13.71-84-29.57-16.11-5.9-32.12-12.09-58.11-22.65-114.64-49t-111.4-55.7Q28.36,157,0,140.71v33.12c51.57,29.85,104.23,57.89,158.05,83.64q70.95,33.78,144.45,62,42.92,16.41,86.65,30.66A1670.06,1670.06,0,0,0,631.39,409q61.7,9.93,123.91,15c10.37.82,20.73,1.75,31.13,2.22l15.59.88c5.19.28,10.38.62,15.58.73l31.2,1,31.21.27q62.49-.12,124.7-4.87l31.09-2.7c10.35-1.05,20.67-2.26,31-3.39s20.64-2.58,31-3.93l15.46-2.07c5.15-.71,10.27-1.59,15.41-2.38l15.4-2.44c5.13-.83,10.27-1.56,15.38-2.54l30.68-5.58c10.21-1.9,20.37-4.13,30.55-6.17,5.09-1.07,10.19-2.06,15.26-3.18l15.19-3.48,15.19-3.48,7.6-1.74,7.55-1.9,30.21-7.63c10.06-2.62,20-5.48,30.06-8.21l15-4.16,14.91-4.47c79.69-23.48,157.66-52.27,234.07-84.51,76.29-32.54,150.9-68.82,223.87-108l27.21-15c9.08-5,18.17-9.94,27.12-15.14l53.65-30.76q53.24-30.5,107.82-58.45,43.46-22.29,87.76-42.9H2049q-10.22,5.15-20.37,10.37Q1973.37,38.89,1919.5,69.87Z"/>
  <path d="M1876.55,48.9,1850,64.28l-26.84,14.94c-17.82,10.11-36,19.54-54,29.24l-6.77,3.62-6.83,3.5-13.66,7c-9.13,4.64-18.19,9.4-27.36,13.93L1686.89,150c-4.6,2.24-9.17,4.53-13.8,6.72l-13.9,6.49-27.81,13-28,12.44-14,6.23-14.13,6-28.27,11.9-28.48,11.34-14.26,5.66-14.35,5.38c-9.57,3.57-19.12,7.21-28.71,10.72L1432.2,256c-9.61,3.48-19.33,6.58-29,9.78l-14.56,4.77-7.28,2.39-7.32,2.24-29.3,8.94c-9.77,2.95-19.64,5.58-29.45,8.39l-14.74,4.15-14.82,3.83c-9.89,2.5-19.75,5.19-29.67,7.55-39.66,9.67-79.65,17.84-119.83,24.84L1106,337.8l-30.29,4.26c-10.09,1.52-20.23,2.53-30.35,3.74l-15.19,1.76c-5.06.56-10.14.95-15.22,1.44l-15.22,1.4c-5.07.47-10.15,1-15.24,1.25L954,353.72l-30.53,1.36-7.64.33-7.64.15-15.28.31q-61.17,1-122.18-2.74-61.05-4-121.56-12.76T529,318.08Q469.29,304.4,410.8,286.39q-49.64-15.28-98.28-33.5-67.69-24.45-133.37-54.14Q87.56,157.17,0,107.55v33.16Q28.37,157,57.16,172.47q54.89,29.44,111.4,55.7t114.64,49q16,6.21,32.12,12.09,42.48,15.54,85.7,28.92,59.67,18.5,120.54,32.49t122.77,23q61.88,9.12,124.22,13.32Q831,390.88,893.46,390l15.62-.28,7.81-.14,7.8-.32,31.21-1.32,31.17-2c5.2-.3,10.39-.78,15.57-1.25l15.55-1.39c5.19-.49,10.38-.88,15.55-1.44l15.52-1.76c10.34-1.21,20.7-2.23,31-3.75l30.93-4.28,30.82-5c41-7.06,81.82-15.3,122.26-25.07,10.12-2.38,20.16-5.09,30.24-7.62l15.11-3.87,15-4.19c10-2.84,20-5.5,30-8.49l29.84-9,7.46-2.27,7.41-2.41,14.81-4.83c9.88-3.23,19.79-6.37,29.56-9.88l29.42-10.27c9.76-3.55,19.47-7.23,29.21-10.83l14.6-5.44,14.48-5.72,29-11.46,28.73-12,14.36-6,14.24-6.29,28.47-12.56,28.24-13.1,14.11-6.55c4.69-2.21,9.33-4.52,14-6.78l28-13.61c9.3-4.57,18.49-9.37,27.75-14.05l13.86-7.06,6.92-3.53,6.87-3.65c18.28-9.78,36.7-19.31,54.75-29.49l27.2-15.06,26.94-15.5c18.08-10.35,35.62-20.72,53.43-30.82Q1993.5,23.88,2039.71,0H1961.9Q1946,8.82,1930.14,17.84C1912.12,28.1,1894.22,38.75,1876.55,48.9Z"/>
  <path d="M1847.18,20.26l-13.4,7.54L1807,42.85c-4.45,2.54-9,5-13.47,7.39L1780,57.53c-9,4.82-18,9.79-27.1,14.5l-27.32,14.1-13.66,7-13.77,6.8-27.56,13.6-27.78,13.1-13.89,6.54c-4.64,2.19-9.34,4.21-14,6.33l-28,12.54c-9.36,4.13-18.82,8-28.22,12.07-18.77,8.18-37.87,15.53-56.83,23.23-9.53,3.72-19.12,7.26-28.68,10.91l-14.34,5.43-14.45,5.16-28.91,10.25-29.11,9.65c-38.9,12.58-78.06,24.36-117.68,34.37s-79.42,19.26-119.6,26.53c-5,.93-10,2-15,2.8l-15.1,2.5c-10.07,1.64-20.12,3.47-30.23,4.8L1058.34,304l-30.39,3.6q-60.86,6.57-122.06,8.7c-40.77,1.37-81.58.87-122.32-1.05s-81.41-5.44-121.85-10.77a1579.69,1579.69,0,0,1-239.31-50.63q-45.6-13.5-90.41-29.4c-48.13-16.5-95.5-35.11-142.08-55.43C125,140.77,61.71,108.78,0,74.2v33.35q87.48,49.58,179.15,91.2,65.61,29.69,133.37,54.14Q362.25,270.85,413,286A1626.34,1626.34,0,0,0,657.31,338c41.34,5.55,82.92,9.16,124.57,11.3s83.38,2.66,125.06,1.35,83.29-4.23,124.75-8.62l31-3.6,31-4.29c10.34-1.34,20.59-3.18,30.88-4.83l15.42-2.52c5.14-.83,10.24-1.88,15.36-2.82,41-7.33,81.66-16.54,122-26.77s80.29-22,119.9-34.73l29.64-9.76,29.42-10.36,14.7-5.21,14.59-5.48c9.73-3.69,19.48-7.27,29.17-11,19.28-7.77,38.7-15.21,57.77-23.46,9.56-4.07,19.17-8,28.68-12.19l28.47-12.66c4.73-2.14,9.51-4.19,14.21-6.39l14.11-6.6,28.2-13.22,28-13.72,14-6.86,13.86-7.09,27.7-14.22c9.22-4.75,18.31-9.76,27.48-14.62l13.71-7.36c4.58-2.44,9.16-4.89,13.67-7.45l27.17-15.16,13.58-7.61,13.45-7.81,26.91-15.62c16.52-9.69,32.92-19.25,49.51-28.62h-73.3l-21.45,12.51Z"/>
  <path d="M1513.66,139.18c-18.91,7.86-38.11,15-57.23,22.33-9.57,3.63-19.25,7-28.87,10.45l-14.45,5.19c-4.81,1.72-9.69,3.28-14.53,4.92l-29.11,9.75-29.3,9.13c-9.74,3.14-19.58,5.91-29.41,8.74L1296,213.93l-7.37,2.12-7.42,2-29.65,7.84c-9.91,2.52-19.87,4.81-29.8,7.23-5,1.17-9.93,2.45-14.92,3.54l-15,3.25-15,3.24-7.5,1.62-7.52,1.45-30.1,5.8-30.21,5.12c-10.06,1.82-20.19,3.11-30.29,4.62l-15.16,2.2c-5.06.72-10.14,1.26-15.2,1.89l-15.21,1.84c-5.07.61-10.14,1.28-15.22,1.72l-30.49,3c-20.36,1.55-40.71,3.18-61.12,4-40.78,1.87-81.63,2.32-122.43.94s-81.54-4.45-122.1-9.07c-81.16-9.1-161.46-25.36-240.2-47.2q-52.39-14.49-103.73-32.54c-4.29-1.45-8.56-2.9-12.84-4.37-9.82-3.5-19.71-6.82-29.49-10.46l-29.3-11-29.08-11.51c-9.68-3.88-19.25-8-28.88-12Q143.26,114.76,87.32,86.86c-9.29-4.7-18.64-9.3-27.87-14.1L31.79,58.26,4.37,43.34,0,40.93V74.2c61.71,34.58,125,66.57,189.92,94.85,46.58,20.32,94,38.93,142.08,55.43q46.1,15.81,93.08,28.94c80.33,22.42,162.38,39.07,245.34,48.6q62.25,7.23,124.84,9.56c41.72,1.51,83.5,1.14,125.2-.68,20.86-.78,41.67-2.39,62.48-3.94l31.15-2.95c5.2-.44,10.38-1.11,15.55-1.71l15.54-1.85c5.18-.64,10.37-1.17,15.53-1.9l15.49-2.21c10.32-1.51,20.67-2.82,30.94-4.64l30.85-5.16,30.73-5.86,7.68-1.46,7.64-1.63,15.29-3.28,15.29-3.27c5.09-1.1,10.14-2.39,15.22-3.57,10.13-2.44,20.29-4.77,30.4-7.31l30.23-7.92,7.56-2,7.51-2.14,15-4.29c10-2.86,20-5.66,30-8.82l29.85-9.23,29.63-9.85c4.93-1.67,9.9-3.24,14.8-5l14.71-5.24c9.79-3.53,19.64-6.89,29.38-10.56,19.45-7.41,39-14.62,58.21-22.56,38.68-15.35,76.73-32.18,114.53-49.49Q1754.82,70.29,1862.81,8.15L1876.75,0h-74.22Q1716,48.21,1626.38,90.17C1589.15,107.32,1551.7,124,1513.66,139.18Z"/>
  <path d="M1525.49,90.89c-19,7.73-37.89,15.67-57.08,22.87l-14.34,5.53-7.17,2.77-7.23,2.62-28.9,10.47c-77.28,27.22-156.08,50.08-236.11,67.18-10,2.3-20,4.17-30.06,6.14s-20,4-30.15,5.66-20.14,3.51-30.23,5.15l-30.34,4.48q-60.81,8.42-122,12.36-61.2,3.78-122.53,2.64c-40.85-.71-81.69-3-122.34-7.13s-81.15-9.78-121.37-17.08c-10-1.93-20.1-3.67-30.11-5.76l-30-6.34-29.85-7c-9.95-2.37-19.81-5.06-29.72-7.57q-54.06-14.35-107-32.18c-3.2-1-6.4-2.08-9.6-3.14q-59.46-19.73-117.45-43.48C173.23,93.33,135.17,76.17,97.67,58Q48.2,33.95,0,7.52V40.93l4.37,2.41L31.79,58.26l27.66,14.5c9.23,4.8,18.58,9.4,27.87,14.1q55.94,27.9,113.51,52.32c9.63,4,19.2,8.1,28.88,12l29.08,11.51,29.3,11c9.78,3.64,19.67,7,29.49,10.46,4.28,1.47,8.55,2.92,12.84,4.37q52.92,17.82,106.9,32.19c10.11,2.58,20.18,5.34,30.33,7.76l30.49,7.2,30.64,6.53c10.22,2.13,20.51,3.93,30.76,5.92q61.71,11.28,124.06,17.69c41.57,4.35,83.33,6.76,125.11,7.58s83.59.07,125.3-2.41q62.61-3.95,124.68-12.34l31-4.51c10.3-1.65,20.58-3.46,30.88-5.19s20.54-3.73,30.79-5.7,20.51-3.88,30.68-6.2c81.69-17.25,162-40.36,240.69-67.87l29.41-10.58,7.35-2.65,7.3-2.79,14.59-5.59c19.52-7.28,38.74-15.3,58-23.11,38.39-16.14,76.54-32.85,114-50.89,37.67-17.72,74.65-36.79,111.47-56.14q16-8.61,31.86-17.35h-78.08c-26.78,13.94-53.71,27.59-81,40.49C1600.8,58.37,1563.25,74.91,1525.49,90.89Z"/>
  <path d="M1565.45,29.92l-28.22,12.3c-4.72,2-9.4,4.14-14.13,6.11l-14.23,5.87c-9.49,3.89-18.95,7.88-28.47,11.69-19.14,7.38-38.16,15.08-57.49,21.94-38.45,14.3-77.42,27.09-116.66,38.93l-29.48,8.67-29.67,8c-9.86,2.78-19.83,5.1-29.77,7.58s-19.86,5-29.88,7.13c-159.61,36.59-324.56,50.5-487.63,36.52-10.18-.95-20.38-1.75-30.55-2.84l-30.47-3.48-30.4-4.18c-5.07-.65-10.12-1.48-15.16-2.31l-15.15-2.46q-60.55-10.18-120.15-24.95c-37.55-9.26-74.73-20.06-111.52-32l-5.21-1.62C301.31,108.26,262,94,223.11,78.67s-77.16-32-115-49.82Q78.55,14.93,49.45,0H0V7.52Q48.21,33.89,97.67,58c37.5,18.21,75.56,35.37,114.21,51.12s77.81,30.33,117.45,43.48c3.2,1.06,6.4,2.09,9.6,3.14,36.53,11.88,73.44,22.62,110.75,31.87q60.9,15.21,122.75,25.66l15.48,2.53c5.16.85,10.32,1.71,15.5,2.39l31.07,4.32,31.17,3.63c10.39,1.13,20.82,2,31.23,3q62.58,5.34,125.34,5.75l31.37-.11,31.36-.85,7.84-.23,7.84-.4,15.66-.81c5.22-.29,10.45-.5,15.66-.86l15.64-1.18c20.87-1.39,41.66-3.64,62.46-5.8l31.12-3.86c5.19-.59,10.35-1.43,15.52-2.18l15.51-2.3c5.17-.79,10.35-1.49,15.5-2.34l15.45-2.66,15.44-2.67c2.58-.45,5.16-.86,7.73-1.35l7.68-1.51,30.76-6,30.6-6.72c10.22-2.15,20.34-4.75,30.49-7.2s20.31-4.87,30.37-7.67l30.25-8.1,30.06-8.77c40-12,79.7-24.9,118.83-39.34,19.67-6.94,39-14.72,58.5-22.18,9.68-3.85,19.3-7.87,29-11.8L1537.28,82c4.82-2,9.58-4.12,14.36-6.17l28.69-12.43c9.52-4.23,19-8.63,28.45-12.93,19-8.5,37.7-17.75,56.51-26.7Q1689.11,12.12,1712.66,0h-82.89c-12,5.83-24.11,11.64-36.32,17.11C1584.12,21.38,1574.82,25.73,1565.45,29.92Z"/>
  <path d="M1492.27,17.62l-14.22,5.92-14.33,5.63L1435,40.42l-28.88,10.66c-4.83,1.75-9.62,3.61-14.46,5.28l-14.55,5-14.55,5c-4.86,1.66-9.68,3.39-14.58,4.92l-29.3,9.42-7.33,2.34L1304,85.28l-14.75,4.39-14.74,4.39c-4.91,1.49-9.88,2.74-14.82,4.13L1230,106.28l-29.84,7.45c-9.92,2.59-20,4.66-29.94,7l-15,3.39c-5,1.16-10,2.06-15,3.11-10,2-20.07,4.11-30.14,6l-30.26,5.37q-60.64,10.17-121.81,16-61.21,5.51-122.62,6.34L820,161c-5.12,0-10.24.12-15.36,0l-30.7-.5-30.67-1.23c-5.12-.15-10.22-.52-15.33-.85l-15.32-1q-61.3-4.26-122-13.4l-30.32-4.86-30.21-5.56c-20.08-4-40.15-8.1-60.07-12.86q-59.86-14.07-118.53-32.47C317.52,77.68,284,65.81,250.74,53q-7.94-2.92-15.84-5.94Q178,25.21,122.47,0h-73q29.11,14.9,58.71,28.85,56.68,26.74,115,49.82C262,94,301.31,108.26,341.21,120.8l5.21,1.62q57.32,17.91,115.76,31.72c20.34,4.89,40.84,9.14,61.36,13.24l30.88,5.73,31,5q62.15,9.45,124.81,14l15.67,1c5.22.34,10.44.73,15.68.9L773,195.37l31.4.58c5.23.15,10.47.08,15.7.05l15.7-.09q62.88-.69,125.43-6.19,62.58-5.85,124.51-16l30.91-5.42c10.28-1.91,20.52-4,30.78-6.06,5.13-1.05,10.28-2,15.37-3.14l15.31-3.41c10.19-2.33,20.44-4.42,30.56-7l30.45-7.52,30.27-8.18c5-1.4,10.11-2.67,15.11-4.17l15-4.44,15-4.43,7.51-2.22,7.47-2.37,29.85-9.52c5-1.54,9.92-3.29,14.86-5L1389,95.73l14.82-5.08c4.94-1.69,9.81-3.56,14.72-5.33L1448,74.54l29.17-11.36,14.59-5.7,14.46-6,28.92-12L1563.8,27l14.33-6.28,14.21-6.54L1620.76,1.1l2.29-1.1h-89.24l-13.1,5.76Z"/>
  <path d="M1360.89,23.32l-14.55,5-14.66,4.74c-39,12.93-78.5,24.18-118.22,34.49l-29.86,7.47-30,6.82-7.5,1.71-7.54,1.54-15.07,3.07-15.08,3.06c-5,1-10.08,1.84-15.13,2.77-40.32,7.55-80.95,13.3-121.7,17.65A1516.3,1516.3,0,0,1,482.67,85.55q-49.56-11-98.37-24.89Q375,58.13,365.78,55.5,305.36,38.1,246.33,16.41,224.69,8.46,203.25,0H122.47Q178,25.2,234.9,47.1q7.9,3,15.84,5.94a1734.31,1734.31,0,0,0,224.54,66.24,1587.34,1587.34,0,0,0,248.89,34.14,1574.29,1574.29,0,0,0,251.14-6.36c41.67-4.36,83.2-10.14,124.39-17.75,5.15-.93,10.32-1.76,15.45-2.78l15.4-3.09,15.4-3.1,7.7-1.56,7.65-1.72,30.64-6.89,30.47-7.54c40.52-10.41,80.82-21.78,120.55-34.86L1357.89,63l14.83-5.1c9.88-3.42,19.78-6.76,29.63-10.25,19.59-7.28,39.32-14.23,58.7-22C1482.2,17.49,1503.16,8.88,1524,0H1425.5c-11.82,4.45-23.69,8.75-35.51,13.18C1380.31,16.63,1370.59,19.94,1360.89,23.32Z"/>
  <path d="M1285.25,5.67c-9.84,2.94-19.64,6-29.52,8.84l-29.68,8.28-7.43,2.06-7.46,1.9-14.93,3.79-14.93,3.81c-5,1.24-10,2.32-15,3.5-10,2.27-20,4.69-30,6.84l-30.16,6.22q-60.46,11.91-121.54,19.5c-81.49,9.65-163.66,13.67-245.63,10.33q-61.53-2.33-122.62-9.62-61.12-7.5-121.44-19.75Q436.8,39.64,379.79,23.53,339.85,12.75,300.45,0h-97.2q21.44,8.46,43.08,16.41,59,21.67,119.45,39.09,9.24,2.64,18.52,5.16,51.42,14.06,103.63,24.78,61.71,12.63,124.17,20.4,62.55,7.51,125.46,10.1c83.87,3.62,168-.29,251.29-10q62.49-7.72,124.23-19.62l30.8-6.28c10.25-2.18,20.44-4.61,30.66-6.91,5.1-1.18,10.23-2.28,15.31-3.54l15.24-3.84L1220.32,62l7.62-1.92,7.57-2.08,30.29-8.36c10.08-2.84,20.07-6,30.11-8.94l15-4.52,14.93-4.83c9.95-3.26,19.94-6.4,29.85-9.74,19.75-6.92,39.6-13.58,59.15-21l1.4-.52h-112.6L1300,1.2Z"/>
  <path d="M1103.8,10.58c-5,1.05-10,2.14-15.11,3l-30.3,5.6c-10.11,1.78-20.27,3.3-30.4,5s-20.31,3.05-30.49,4.44a1556.13,1556.13,0,0,1-245.67,14.2q-61.62-1.53-122.85-8c-40.82-4.33-81.5-10.14-121.84-17.81Q467.5,9.49,428.29,0H300.45q39.39,12.75,79.34,23.53,59.86,16.17,120.85,27.9A1571.4,1571.4,0,0,0,751,78.26a1592,1592,0,0,0,251.36-14c10.4-1.4,20.82-2.72,31.17-4.47s20.74-3.2,31.08-5l31-5.65c5.17-.9,10.3-2,15.44-3.06l15.41-3.19c41-8.67,81.85-18.53,122.15-30.1l15.15-4.23,15-4.55c4.45-1.37,8.91-2.71,13.37-4.06H1152.21q-16.64,3.85-33.32,7.42Z"/>
  <path d="M764.78,4.39C729.84,4.09,694.9,2.72,660.06,0H429.7C539.39,25.28,651.78,39.16,764.46,40.05c42,.38,84.13-.66,126.06-3.8s83.74-7.65,125.34-13.71q60.8-9.35,120.81-22.54H892.87c-1.64.13-3.28.27-4.92.39C847,3.55,805.86,4.66,764.78,4.39Z"/>
  <path d="M778,1.72Q809.61,1.47,841.14,0H698.89Q738.42,1.83,778,1.72Z"/>
</svg>
